<svg viewBox="0 0 330 200" xmlns="http://www.w3.org/2000/svg"><g><g><g><g><g><line x1="50" y1="178" x2="45" y2="178" style="visibility: inherit;" fill="rgb(0, 0, 0)" stroke="rgb(204, 204, 204)" stroke-width="1px"></line><line x1="50" y1="161.8181818181818" x2="45" y2="161.8181818181818" style="visibility: inherit;" fill="rgb(0, 0, 0)" stroke="rgb(204, 204, 204)" stroke-width="1px"></line><line x1="50" y1="145.63636363636363" x2="45" y2="145.63636363636363" style="visibility: inherit;" fill="rgb(0, 0, 0)" stroke="rgb(204, 204, 204)" stroke-width="1px"></line><line x1="50" y1="129.45454545454547" x2="45" y2="129.45454545454547" style="visibility: inherit;" fill="rgb(0, 0, 0)" stroke="rgb(204, 204, 204)" stroke-width="1px"></line><line x1="50" y1="113.27272727272727" x2="45" y2="113.27272727272727" style="visibility: inherit;" fill="rgb(0, 0, 0)" stroke="rgb(204, 204, 204)" stroke-width="1px"></line><line x1="50" y1="97.09090909090908" x2="45" y2="97.09090909090908" style="visibility: inherit;" fill="rgb(0, 0, 0)" stroke="rgb(204, 204, 204)" stroke-width="1px"></line><line x1="50" y1="80.90909090909092" x2="45" y2="80.90909090909092" style="visibility: inherit;" fill="rgb(0, 0, 0)" stroke="rgb(204, 204, 204)" stroke-width="1px"></line><line x1="50" y1="64.72727272727273" x2="45" y2="64.72727272727273" style="visibility: inherit;" fill="rgb(0, 0, 0)" stroke="rgb(204, 204, 204)" stroke-width="1px"></line><line x1="50" y1="48.54545454545453" x2="45" y2="48.54545454545453" style="visibility: inherit;" fill="rgb(0, 0, 0)" stroke="rgb(204, 204, 204)" stroke-width="1px"></line><line x1="50" y1="32.3636363636364" x2="45" y2="32.3636363636364" style="visibility: inherit;" fill="rgb(0, 0, 0)" stroke="rgb(204, 204, 204)" stroke-width="1px"></line><line x1="50" y1="16.181818181818187" x2="45" y2="16.181818181818187" style="visibility: inherit;" fill="rgb(0, 0, 0)" stroke="rgb(204, 204, 204)" stroke-width="1px"></line><line x1="50" y1="0" x2="45" y2="0" style="visibility: inherit;" fill="rgb(0, 0, 0)" stroke="rgb(204, 204, 204)" stroke-width="1px"></line></g><g transform="translate(40, 0)"><text x="0" y="178" dx="0em" dy="0.3em" style="text-anchor: end; visibility: hidden; font-family: &quot;Helvetica Neue&quot;, sans-serif; font-size: 12px; font-weight: 200;" fill="rgb(50, 49, 63)" stroke="none" stroke-width="1px">0.24</text><text x="0" y="161.8181818181818" dx="0em" dy="0.3em" style="text-anchor: end; visibility: inherit; font-family: &quot;Helvetica Neue&quot;, sans-serif; font-size: 12px; font-weight: 200;" fill="rgb(50, 49, 63)" stroke="none" stroke-width="1px">0.26</text><text x="0" y="145.63636363636363" dx="0em" dy="0.3em" style="text-anchor: end; visibility: hidden; font-family: &quot;Helvetica Neue&quot;, sans-serif; font-size: 12px; font-weight: 200;" fill="rgb(50, 49, 63)" stroke="none" stroke-width="1px">0.28</text><text x="0" y="129.45454545454547" dx="0em" dy="0.3em" style="text-anchor: end; visibility: inherit; font-family: &quot;Helvetica Neue&quot;, sans-serif; font-size: 12px; font-weight: 200;" fill="rgb(50, 49, 63)" stroke="none" stroke-width="1px">0.3</text><text x="0" y="113.27272727272727" dx="0em" dy="0.3em" style="text-anchor: end; visibility: hidden; font-family: &quot;Helvetica Neue&quot;, sans-serif; font-size: 12px; font-weight: 200;" fill="rgb(50, 49, 63)" stroke="none" stroke-width="1px">0.32</text><text x="0" y="97.09090909090908" dx="0em" dy="0.3em" style="text-anchor: end; visibility: inherit; font-family: &quot;Helvetica Neue&quot;, sans-serif; font-size: 12px; font-weight: 200;" fill="rgb(50, 49, 63)" stroke="none" stroke-width="1px">0.34</text><text x="0" y="80.90909090909092" dx="0em" dy="0.3em" style="text-anchor: end; visibility: hidden; font-family: &quot;Helvetica Neue&quot;, sans-serif; font-size: 12px; font-weight: 200;" fill="rgb(50, 49, 63)" stroke="none" stroke-width="1px">0.36</text><text x="0" y="64.72727272727273" dx="0em" dy="0.3em" style="text-anchor: end; visibility: inherit; font-family: &quot;Helvetica Neue&quot;, sans-serif; font-size: 12px; font-weight: 200;" fill="rgb(50, 49, 63)" stroke="none" stroke-width="1px">0.38</text><text x="0" y="48.54545454545453" dx="0em" dy="0.3em" style="text-anchor: end; visibility: hidden; font-family: &quot;Helvetica Neue&quot;, sans-serif; font-size: 12px; font-weight: 200;" fill="rgb(50, 49, 63)" stroke="none" stroke-width="1px">0.4</text><text x="0" y="32.3636363636364" dx="0em" dy="0.3em" style="text-anchor: end; visibility: inherit; font-family: &quot;Helvetica Neue&quot;, sans-serif; font-size: 12px; font-weight: 200;" fill="rgb(50, 49, 63)" stroke="none" stroke-width="1px">0.42</text><text x="0" y="16.181818181818187" dx="0em" dy="0.3em" style="text-anchor: end; visibility: hidden; font-family: &quot;Helvetica Neue&quot;, sans-serif; font-size: 12px; font-weight: 200;" fill="rgb(50, 49, 63)" stroke="none" stroke-width="1px">0.44</text><text x="0" y="0" dx="0em" dy="0.3em" style="text-anchor: end; visibility: hidden; font-family: &quot;Helvetica Neue&quot;, sans-serif; font-size: 12px; font-weight: 200;" fill="rgb(50, 49, 63)" stroke="none" stroke-width="1px">0.46</text></g><line x1="50" y1="0" x2="50" y2="178" fill="rgb(0, 0, 0)" stroke="rgb(204, 204, 204)" stroke-width="1px"></line></g></g><g transform="translate(50, 0)" clip-path="url(#clip_0)"><clipPath id="clip_0"><rect width="280" height="178"></rect></clipPath><g><g><g><line x1="0" y1="0" x2="0" y2="178" fill="rgb(0, 0, 0)" stroke="rgb(60, 60, 60)" stroke-width="1px" opacity="0.25"></line><line x1="23.333333333333332" y1="0" x2="23.333333333333332" y2="178" fill="rgb(0, 0, 0)" stroke="rgb(60, 60, 60)" stroke-width="1px" opacity="0.25"></line><line x1="46.666666666666664" y1="0" x2="46.666666666666664" y2="178" fill="rgb(0, 0, 0)" stroke="rgb(60, 60, 60)" stroke-width="1px" opacity="0.25"></line><line x1="70" y1="0" x2="70" y2="178" fill="rgb(0, 0, 0)" stroke="rgb(60, 60, 60)" stroke-width="1px" opacity="0.25"></line><line x1="93.33333333333333" y1="0" x2="93.33333333333333" y2="178" fill="rgb(0, 0, 0)" stroke="rgb(60, 60, 60)" stroke-width="1px" opacity="0.25"></line><line x1="116.66666666666667" y1="0" x2="116.66666666666667" y2="178" fill="rgb(0, 0, 0)" stroke="rgb(60, 60, 60)" stroke-width="1px" opacity="0.25"></line><line x1="140" y1="0" x2="140" y2="178" fill="rgb(0, 0, 0)" stroke="rgb(60, 60, 60)" stroke-width="1px" opacity="0.25"></line><line x1="163.33333333333334" y1="0" x2="163.33333333333334" y2="178" fill="rgb(0, 0, 0)" stroke="rgb(60, 60, 60)" stroke-width="1px" opacity="0.25"></line><line x1="186.66666666666666" y1="0" x2="186.66666666666666" y2="178" fill="rgb(0, 0, 0)" stroke="rgb(60, 60, 60)" stroke-width="1px" opacity="0.25"></line><line x1="210" y1="0" x2="210" y2="178" fill="rgb(0, 0, 0)" stroke="rgb(60, 60, 60)" stroke-width="1px" opacity="0.25"></line><line x1="233.33333333333334" y1="0" x2="233.33333333333334" y2="178" fill="rgb(0, 0, 0)" stroke="rgb(60, 60, 60)" stroke-width="1px" opacity="0.25"></line><line x1="256.66666666666663" y1="0" x2="256.66666666666663" y2="178" fill="rgb(0, 0, 0)" stroke="rgb(60, 60, 60)" stroke-width="1px" opacity="0.25"></line><line x1="280" y1="0" x2="280" y2="178" fill="rgb(0, 0, 0)" stroke="rgb(60, 60, 60)" stroke-width="1px" opacity="0.25"></line></g><g><line x1="0" y1="178" x2="280" y2="178" fill="rgb(0, 0, 0)" stroke="rgb(60, 60, 60)" stroke-width="1px" opacity="0.25"></line><line x1="0" y1="161.8181818181818" x2="280" y2="161.8181818181818" fill="rgb(0, 0, 0)" stroke="rgb(60, 60, 60)" stroke-width="1px" opacity="0.25"></line><line x1="0" y1="145.63636363636363" x2="280" y2="145.63636363636363" fill="rgb(0, 0, 0)" stroke="rgb(60, 60, 60)" stroke-width="1px" opacity="0.25"></line><line x1="0" y1="129.45454545454547" x2="280" y2="129.45454545454547" fill="rgb(0, 0, 0)" stroke="rgb(60, 60, 60)" stroke-width="1px" opacity="0.25"></line><line x1="0" y1="113.27272727272727" x2="280" y2="113.27272727272727" fill="rgb(0, 0, 0)" stroke="rgb(60, 60, 60)" stroke-width="1px" opacity="0.25"></line><line x1="0" y1="97.09090909090908" x2="280" y2="97.09090909090908" fill="rgb(0, 0, 0)" stroke="rgb(60, 60, 60)" stroke-width="1px" opacity="0.25"></line><line x1="0" y1="80.90909090909092" x2="280" y2="80.90909090909092" fill="rgb(0, 0, 0)" stroke="rgb(60, 60, 60)" stroke-width="1px" opacity="0.25"></line><line x1="0" y1="64.72727272727273" x2="280" y2="64.72727272727273" fill="rgb(0, 0, 0)" stroke="rgb(60, 60, 60)" stroke-width="1px" opacity="0.25"></line><line x1="0" y1="48.54545454545453" x2="280" y2="48.54545454545453" fill="rgb(0, 0, 0)" stroke="rgb(60, 60, 60)" stroke-width="1px" opacity="0.25"></line><line x1="0" y1="32.3636363636364" x2="280" y2="32.3636363636364" fill="rgb(0, 0, 0)" stroke="rgb(60, 60, 60)" stroke-width="1px" opacity="0.25"></line><line x1="0" y1="16.181818181818187" x2="280" y2="16.181818181818187" fill="rgb(0, 0, 0)" stroke="rgb(60, 60, 60)" stroke-width="1px" opacity="0.25"></line><line x1="0" y1="0" x2="280" y2="0" fill="rgb(0, 0, 0)" stroke="rgb(60, 60, 60)" stroke-width="1px" opacity="0.25"></line></g></g></g><g><g><line x1="0" y1="372.18181818181813" x2="280" y2="372.18181818181813" fill="rgb(0, 0, 0)" stroke="rgb(153, 153, 153)" stroke-width="1.5px"></line></g></g><g><g><line x1="23.333333333333332" y1="0" x2="23.333333333333332" y2="178" fill="rgb(0, 0, 0)" stroke="rgb(153, 153, 153)" stroke-width="1.5px"></line></g></g><g><g><g><g><g><path stroke="rgb(0, 119, 187)" stroke-width="2px" d="M28,183.730077231899L29.166666666666668,176.3469141868009L30.333333333333336,168.92523614738863L31.5,162.30331159178985L32.666666666666664,155.45968340539457L33.833333333333336,149.55281642913283L35,143.0000402080936L36.16666666666667,137.1375643036671L37.333333333333336,132.9801361663172L38.5,129.08563823591575L39.666666666666664,125.23987384169337L40.833333333333336,122.2861257471378L42,119.5433300304454L43.16666666666667,116.60327983984871L44.33333333333333,114.62366645914992L45.5,112.89656248975479L46.666666666666664,111.32093526433084L47.833333333333336,109.40465239002111L49,107.49974783635633L50.166666666666664,105.92529987646236L51.33333333333333,104.44124091665064L52.5,103.33504664497954L53.66666666666667,102.34768911632938L54.833333333333336,101.43164285020491L56,100.34262182682426L57.166666666666664,99.90497074534073L58.333333333333336,99.64238015837273L59.5,99.05330333805797L60.66666666666667,98.26834444430125L61.83333333333333,96.93434348537549L63,96.1339429344813L64.16666666666666,95.33006076735082L65.33333333333333,94.84773147237907L66.5,94.45045328288533L67.66666666666667,93.67269294394366L68.83333333333333,92.8824045443084L70,92.30035089109626L71.16666666666666,91.95111869946771L72.33333333333334,91.09430534540284L73.5,89.82507232507771L74.66666666666667,88.41625847394765L75.83333333333333,87.463089549336L77,86.56754635253313L78.16666666666667,85.81446885154202L79.33333333333333,85.14686112291406L80.5,84.53054490281534L81.66666666666667,83.8371133286959L82.83333333333333,83.31317377020548L84,82.89093906620657L85.16666666666666,82.85334982673402L86.33333333333334,82.18352224404164L87.5,82.10526753648843L88.66666666666666,81.84255348391525L89.83333333333334,81.36129285542482L91,81.1804074472359L92.16666666666667,80.64036339135538L93.33333333333333,80.20845634380646L94.5,79.94931211527717L95.66666666666667,79.25443215317173L96.83333333333333,78.62175259298257L98,77.91850301480721L99.16666666666667,77.7123144959432L100.33333333333333,77.3728401565836L101.5,77.06128458406249L102.66666666666666,76.87435124054983L103.83333333333334,76.76219123444218L105,76.69489523077763L106.16666666666666,76.43875640053768L107.33333333333334,75.63779906338523L108.5,74.94146343305262L109.66666666666667,74.30791047192709L110.83333333333333,73.71201746721057L112,73.24660105036003L113.16666666666667,72.53583838928253L114.33333333333333,71.89361956459481L115.5,71.40041730087682L116.66666666666667,70.99661532862542L117.83333333333333,70.86221475929516L119,70.56581318965581L120.16666666666666,70.3879722478722L121.33333333333334,70.28126768280204L122.5,70.10936432973928L123.66666666666666,70.00622231790167L124.83333333333334,69.62070491385256L126,69.38939447142305L127.16666666666667,69.35848881998595L128.33333333333331,69.1241842010825L129.5,68.76784020169922L130.66666666666666,68.23040160512262L131.83333333333334,68.01581906119729L133,67.77918892082153L134.16666666666669,67.42144960855482L135.33333333333334,67.09893505228945L136.5,66.58178447646837L137.66666666666666,66.37937474499634L138.83333333333334,66.04216767807189L140,65.62409185499129L141.16666666666666,65.37324636114293L142.33333333333331,65.43849064775986L143.5,65.26188563680404L144.66666666666669,65.04804201620993L145.83333333333334,64.48822303288628L147,64.0444510288715L148.16666666666666,63.778187826462656L149.33333333333334,63.510549290996735L150.5,63.13420494167593L151.66666666666666,63.016278946104094L152.83333333333331,62.83764273474037L154,62.73046100792213L155.16666666666669,62.23463916086399L156.33333333333334,61.82926543860849L157.5,61.37028962232927L158.66666666666666,60.98702351854109L159.83333333333331,60.7570638562682L161,60.83483964183043L162.16666666666669,60.66575353024179L163.33333333333334,60.45642124926803L164.5,60.115060652642555L165.66666666666666,59.694492711741304L166.83333333333334,59.44215194720056L168,59.07498626043488L169.16666666666666,58.315293423387686L170.33333333333331,57.75159710713871L171.5,57.41337931738937L172.66666666666669,56.9946970606138L173.83333333333334,56.52772647850723L175,56.139663515222665L176.16666666666666,55.47531292628473L177.33333333333331,55.184583186942604L178.5,55.01014534333734L179.66666666666669,54.689721409132986L180.83333333333334,54.06595423764314L182,53.79957454876987L183.16666666666666,53.63974673544591L184.33333333333334,53.43596943343091L185.5,53.31370305222191L186.66666666666666,53.132462609475894L187.83333333333331,52.91583772980769L189,52.57011121908083L190.16666666666669,52.3626753126447L191.33333333333334,51.914571926721194L192.5,51.861471123208275L193.66666666666666,51.72173002707993L194.83333333333331,51.53000475538232L196,51.0913373954172L197.16666666666669,50.82813697943806L198.33333333333334,50.346574887788776L199.5,49.94976666389391L200.66666666666666,49.3880398874951L201.83333333333334,48.94312320763527L203,48.67617319971933L204.16666666666666,48.408132226064396L205.33333333333331,47.92366579980961L206.5,47.63298594405674L207.66666666666669,47.674339258646256L208.83333333333334,47.375509405338164L210,47.088340524447915L211.16666666666666,47.023910164819114L212.33333333333331,46.769500366115864L213.5,46.616854486893914L214.66666666666669,46.417386345340134L215.83333333333334,46.29770546040788L217,46.22589692944854L218.16666666666666,46.18281181087295L219.33333333333334,46.26484135374818L220.5,46.20617846545272L221.66666666666666,46.170980732475414L222.83333333333331,46.36562332073029L224,46.48240887368317L225.16666666666669,46.660351174360244L226.33333333333334,46.443484357819955L227.5,46.52912549593697L228.66666666666666,46.68838114771253L229.83333333333331,46.460302341831294L231,46.21557444428197L232.16666666666669,46.176618319772984L233.33333333333334,46.261125259088175L234.5,46.096068194636075L235.66666666666666,46.320675798026656L236.83333333333334,46.77907255700754L238,46.946229998375486L239.16666666666666,47.04652446319628L240.33333333333331,47.43034298415057L241.5,47.66063409672313L242.66666666666669,47.79880876426671L243.83333333333334,47.88171356479282L245,47.49993398902606L246.16666666666666,47.16299527466063L247.33333333333331,47.06870301494675L248.5,46.796376076192445L249.66666666666669,46.52509929891926L250.83333333333334,46.47021384657597L252,46.54516318919056L253.16666666666666,46.37437156671814L254.33333333333334,46.48765782127589L255.5,46.8792617709571" style="fill: none;" fill="none"></path></g><g><path stroke="rgb(255, 112, 67)" stroke-width="2px" d="M28,182.8696865419974L29.166666666666668,172.67108439286199L30.333333333333336,162.96448334971814L31.5,154.15062827793878L32.666666666666664,146.52297781011626L33.833333333333336,139.7222752772748L35,133.45059314011112L36.16666666666667,127.46254875457711L37.333333333333336,122.06783051446739L38.5,117.20211500304427L39.666666666666664,113.2300341597683L40.833333333333336,109.29075283558956L42,105.84799983152384L43.16666666666667,102.80335300708859L44.33333333333333,100.1983256510924L45.5,97.83187584046483L46.666666666666664,95.5834313004874L47.833333333333336,93.73219731877474L49,92.16949885449931L50.166666666666664,90.42837825118822L51.33333333333333,88.55509696276374L52.5,86.75317529114828L53.66666666666667,85.06938719293494L54.833333333333336,83.40627576553571L56,81.90621716221085L57.166666666666664,80.4537679012545L58.333333333333336,79.23077263331946L59.5,78.1454400330522L60.66666666666667,76.96694205252413L61.83333333333333,75.78275730605262L63,74.7207206036044L64.16666666666666,73.90772601177349L65.33333333333333,72.94285292370245L66.5,71.78640850698385L67.66666666666667,70.59034964309608L68.83333333333333,69.32030964027646L70,68.18164388903347L71.16666666666666,67.3226718585541L72.33333333333334,66.43064689008652L73.5,65.46857768879333L74.66666666666667,64.71556358787232L75.83333333333333,63.962441727082464L77,63.20925521035875L78.16666666666667,62.55646448512057L79.33333333333333,61.88859252981405L80.5,61.2367684263332L81.66666666666667,60.64479514902966L82.83333333333333,60.03851989746326L84,59.448769696322714L85.16666666666666,58.99448499058789L86.33333333333334,58.57125746701281L87.5,58.11644213765052L88.66666666666666,57.718002474882866L89.83333333333334,57.07719069190263L91,56.49182480689703L92.16666666666667,55.88951399070838L93.33333333333333,55.30214245079375L94.5,55.02504787691217L95.66666666666667,54.68301855234968L96.83333333333333,54.22670967242681L98,53.72693929427169L99.16666666666667,53.22619825216111L100.33333333333333,52.62444022662636L101.5,52.11272871117109L102.66666666666666,51.554610516712614L103.83333333333334,50.86820408468577L105,50.23037517526822L106.16666666666666,49.69702112948343L107.33333333333334,49.25145823686222L108.5,48.80835756617131L109.66666666666667,48.5173812836575L110.83333333333333,48.06659799397991L112,47.49481461990476L113.16666666666667,47.0513003652934L114.33333333333333,46.508994292357215L115.5,45.95762559839406L116.66666666666667,45.375703451715566L117.83333333333333,44.82567134849103L119,44.294782916454096L120.16666666666666,43.85069939208162L121.33333333333334,43.38337046224069L122.5,42.92721016921786L123.66666666666666,42.40242270821875L124.83333333333334,41.987106001452986L126,41.687703507425596L127.16666666666667,41.533168245993124L128.33333333333331,41.314896623983316L129.5,41.03327695064317L130.66666666666666,40.71364844650478L131.83333333333334,40.49676510903777L133,40.16575629134016L134.16666666666669,39.816494300587294L135.33333333333334,39.657159221218706L136.5,39.21002265824589L137.66666666666666,38.91663448547817L138.83333333333334,38.564829001584116L140,38.203089011113406L141.16666666666666,37.73495373164556L142.33333333333331,37.328522098814574L143.5,36.783349718847404L144.66666666666669,36.481352525851065L145.83333333333334,36.249941740085376L147,36.0106510384596L148.16666666666666,35.84197038250011L149.33333333333334,35.56499905380622L150.5,35.39881625658987L151.66666666666666,35.34931904822798L152.83333333333331,35.14385778809262L154,34.79459598180998L155.16666666666669,34.43438219790613L156.33333333333334,34.193147692579856L157.5,33.897750289249814L158.66666666666666,33.54473926701826L159.83333333333331,33.307826418695385L161,33.11545659461848L162.16666666666669,32.899600115121245L163.33333333333334,32.64453576227257L164.5,32.4412750354802L165.66666666666666,32.16866189927052L166.83333333333334,31.703780617276152L168,31.349523498012417L169.16666666666666,31.187191341537357L170.33333333333331,31.039569932569123L171.5,30.80034038705392L172.66666666666669,30.732131009811923L173.83333333333334,30.666099148482715L175,30.57625791660206L176.16666666666666,30.49724694248974L177.33333333333331,30.399618242939113L178.5,30.31593478822481L179.66666666666669,30.24061848041225L180.83333333333334,30.145206580641485L182,29.987524855727997L183.16666666666666,29.717143240546392L184.33333333333334,29.55491427143744L185.5,29.55802112013842L186.66666666666666,29.45944099919265L187.83333333333331,29.50073715679153L189,29.450186501283724L190.16666666666669,29.47006857794699L191.33333333333334,29.356457003909867L192.5,29.238067944404463L193.66666666666666,29.21725662378435L194.83333333333331,29.17965395131307L196,29.106879877862355L197.16666666666669,29.113427903759884L198.33333333333334,29.117356719298385L199.5,29.169936123704645L200.66666666666666,29.20148376634839L201.83333333333334,29.195306116950718L203,29.166483647212885L204.16666666666666,29.124083930386206L205.33333333333331,29.098644100290244L206.5,29.05827396724871L207.66666666666669,29.15959270745884L208.83333333333334,29.094843131549823L210,29.081099620988425L211.16666666666666,28.99752516458443L212.33333333333331,28.721395440540647L213.5,28.405060905980008L214.66666666666669,28.29058853531086L215.83333333333334,28.12146088274295L217,27.919549706151116L218.16666666666666,27.798403000196032L219.33333333333334,27.62528039157189L220.5,27.621841411448486L221.66666666666666,27.720212608425584L222.83333333333331,27.754129091627846L224,27.74937274656523L225.16666666666669,27.821847289594842L226.33333333333334,27.815109900329418L227.5,28.011946281987605L228.66666666666666,28.104932230883264L229.83333333333331,28.210945915303853L231,28.22433201087304L232.16666666666669,28.332807898380878L233.33333333333334,28.52344389603593L234.5,28.863810544830358L235.66666666666666,29.042914654007802L236.83333333333334,29.30103381964858L238,29.506127434116166L239.16666666666666,29.830062418014194L240.33333333333331,30.049529643336996L241.5,30.28164456358175L242.66666666666669,30.44602939582782L243.83333333333334,30.594872765143407L245,30.885057601950194L246.16666666666666,31.1344968541014L247.33333333333331,31.334382520475316L248.5,31.303657220165405L249.66666666666669,31.184777809813085L250.83333333333334,31.339435213803114L252,31.55778012134749L253.16666666666666,31.91477211607551L254.33333333333334,32.30473989314578L255.5,32.5889330293559" style="fill: none;" fill="none"></path></g></g></g></g><g opacity="0.2"><g><g><g><path stroke="rgb(0, 119, 187)" stroke-width="2px" d="M26.833333333333336,181.5060640140013L28,172.60605803402987L29.166666666666668,166.13334175673398L30.333333333333336,158.3121178041805L31.5,152.64848201925105L32.666666666666664,145.3666611368006L33.833333333333336,140.7818073792891L35,133.23030907457525L36.16666666666667,128.37575378201225L37.333333333333336,126.75756868449125L38.5,123.25152106718585L39.666666666666664,119.47574780204079L40.833333333333336,117.85758681730792L42,115.43029711463234L43.16666666666667,112.19395103237845L44.33333333333333,111.65454796227542L45.5,110.30606439980593L46.666666666666664,108.95758083733645L47.833333333333336,106.5302911346609L49,104.6424286148765L50.166666666666664,103.56364658745854L51.33333333333333,102.21516302498905L52.5,101.675759954886L53.66666666666667,100.86665534973145L54.833333333333336,100.057574857365L56,98.70909129489552L57.166666666666664,99.24849436499856L58.333333333333336,99.24849436499856L59.5,98.16968822479248L60.66666666666667,97.09090619737452L61.83333333333333,94.93334214253859L63,94.93334214253859L64.16666666666666,94.12423753738403L65.33333333333333,94.12423753738403L66.5,93.85453600233252L67.66666666666667,92.50605243986304L68.83333333333333,91.69697194749659L70,91.42727041244507L71.16666666666666,91.42727041244507L72.33333333333334,89.80908531492408L73.5,87.92122279513967L74.66666666666667,86.30303769761866L75.83333333333333,86.03333616256714L77,85.22423155741258L78.16666666666667,84.68485260009766L79.33333333333333,84.14544952999462L80.5,83.6060705726797L81.66666666666667,82.79696596752514L82.83333333333333,82.52726443247361L84,82.25758701021022L85.16666666666666,82.79696596752514L86.33333333333334,81.17878087000413L87.5,81.98788547515869L88.66666666666666,81.44848240505566L89.83333333333334,80.63940191268921L91,80.90907933495261L92.16666666666667,79.83029730753465L93.33333333333333,79.56059577248313L94.5,79.56059577248313L95.66666666666667,78.21211221001364L96.83333333333333,77.67273325269873L98,76.86362864754416L99.16666666666667,77.40303171764721L100.33333333333333,76.86362864754416L101.5,76.59395122528076L102.66666666666666,76.59395122528076L103.83333333333334,76.59395122528076L105,76.59395122528076L106.16666666666666,76.05454815517773L107.33333333333334,74.43636305765672L108.5,73.8969599875537L109.66666666666667,73.35758103023876L110.83333333333333,72.81817796013571L112,72.54847642508422L113.16666666666667,71.46969439766623L114.33333333333333,70.93029132756321L115.5,70.6606139052998L116.66666666666667,70.39091237024827L117.83333333333333,70.6606139052998L119,70.12121083519675L120.16666666666666,70.12121083519675L121.33333333333334,70.12121083519675L122.5,69.85150930014525L123.66666666666666,69.85150930014525L124.83333333333334,69.04242880777879L126,69.04242880777879L127.16666666666667,69.31213034283032L128.33333333333331,68.77272727272727L129.5,68.23332420262425L130.66666666666666,67.42424371025778L131.83333333333334,67.69394524530931L133,67.42424371025778L134.16666666666669,66.88484064015476L135.33333333333334,66.61516321789135L136.5,65.8060586127368L137.66666666666666,66.0757601477883L138.83333333333334,65.53635707768528L140,64.99697812037034L141.16666666666666,64.99697812037034L142.33333333333331,65.53635707768528L143.5,64.99697812037034L144.66666666666669,64.72727658531882L145.83333333333334,63.64849455790086L147,63.37879302284934L148.16666666666666,63.37879302284934L149.33333333333334,63.10909148779784L150.5,62.56968841769479L151.66666666666666,62.839389952746316L152.83333333333331,62.56968841769479L154,62.56968841769479L155.16666666666669,61.490906390276834L156.33333333333334,61.22120485522531L157.5,60.6818258979104L158.66666666666666,60.412124362858876L159.83333333333331,60.412124362858876L161,60.9515033201738L162.16666666666669,60.412124362858876L163.33333333333334,60.14242282780735L164.5,59.60301975770432L165.66666666666666,59.06364080038939L166.83333333333334,59.06364080038939L168,58.524237730286345L169.16666666666666,57.17575416781686L170.33333333333331,56.90605263276535L171.5,56.90605263276535L172.66666666666669,56.36667367545043L173.83333333333334,55.82727060534738L175,55.55756907029587L176.16666666666666,54.4787870428779L177.33333333333331,54.74848857792942L178.5,54.74848857792942L179.66666666666669,54.20908550782639L180.83333333333334,53.130303480408415L182,53.40000501545994L183.16666666666666,53.40000501545994L184.33333333333334,53.130303480408415L185.5,53.130303480408415L186.66666666666666,52.860601945356905L187.83333333333331,52.59090041030538L189,52.05152145299046L190.16666666666669,52.05152145299046L191.33333333333334,51.2424168478359L192.5,51.78181991793893L193.66666666666666,51.51211838288742L194.83333333333331,51.2424168478359L196,50.43333635546945L197.16666666666669,50.43333635546945L198.33333333333334,49.62423175031489L199.5,49.35455432805148L200.66666666666666,48.54544972289693L201.83333333333334,48.27574818784541L203,48.27574818784541L204.16666666666666,48.006070765581995L205.33333333333331,47.19696616042745L206.5,47.19696616042745L207.66666666666669,47.73636923053047L208.83333333333334,46.927264625375926L210,46.65758720311251L211.16666666666666,46.927264625375926L212.33333333333331,46.38788566806099L213.5,46.38788566806099L214.66666666666669,46.11818413300949L215.83333333333334,46.11818413300949L217,46.11818413300949L218.16666666666666,46.11818413300949L219.33333333333334,46.38788566806099L220.5,46.11818413300949L221.66666666666666,46.11818413300949L222.83333333333331,46.65758720311251L224,46.65758720311251L225.16666666666669,46.927264625375926L226.33333333333334,46.11818413300949L227.5,46.65758720311251L228.66666666666666,46.927264625375926L229.83333333333331,46.11818413300949L231,45.84848259795797L232.16666666666669,46.11818413300949L233.33333333333334,46.38788566806099L234.5,45.84848259795797L235.66666666666666,46.65758720311251L236.83333333333334,47.466667695478975L238,47.19696616042745L239.16666666666666,47.19696616042745L240.33333333333331,48.006070765581995L241.5,48.006070765581995L242.66666666666669,48.006070765581995L243.83333333333334,48.006070765581995L245,46.927264625375926L246.16666666666666,46.65758720311251L247.33333333333331,46.927264625375926L248.5,46.38788566806099L249.66666666666669,46.11818413300949L250.83333333333334,46.38788566806099L252,46.65758720311251L253.16666666666666,46.11818413300949L254.33333333333334,46.65758720311251L255.5,47.466667695478975" style="fill: none;" fill="none"></path></g><g><path stroke="rgb(255, 112, 67)" stroke-width="2px" d="M25.666666666666664,192.83720568635246L26.833333333333336,177.6459562724287L28,167.28829608180305L29.166666666666668,158.56274612383407L30.333333333333336,149.08388855240563L31.5,141.29994297027588L32.666666666666664,135.27367496490479L33.833333333333336,129.62402459708127L35,124.0999536297538L36.16666666666667,118.51306884939021L37.333333333333336,113.99336784536189L38.5,109.91307417912917L39.666666666666664,107.27658192677931L40.833333333333336,103.38460913571446L42,100.68532718311657L43.16666666666667,98.23715580593456L44.33333333333333,96.29118146679619L45.5,94.28241742740978L46.666666666666664,92.21088780056347L47.833333333333336,90.95540726184845L49,89.82548201084137L50.166666666666664,87.81671797145498L51.33333333333333,85.74518834460866L52.5,84.05030046809804L53.66666666666667,82.54370935396715L54.833333333333336,80.91161117770456L56,79.65613063898955L57.166666666666664,78.27509481256659L58.333333333333336,77.39628013697539L59.5,76.51744134859605L60.66666666666667,75.19919522242112L61.83333333333333,74.00648027116603L63,73.12766559557481L64.16666666666666,72.6882341449911L65.33333333333333,71.49554330652411L66.5,70.05174189264125L67.66666666666667,68.79626135392624L68.83333333333333,67.41524964029139L70,66.47364526445216L71.16666666666666,66.03421381386845L72.33333333333334,65.09260943802921L73.5,64.02547388727015L74.66666666666667,63.58604243668644L75.83333333333333,62.832758936015054L77,62.07947543534367L78.16666666666667,61.57727839730005L79.33333333333333,60.88678459687668L80.5,60.25903227112512L81.66666666666667,59.756835233081475L82.83333333333333,59.12910702011804L84,58.5641443946145L85.16666666666666,58.313057931986734L86.33333333333334,57.93641618165104L87.5,57.43421914360742L88.66666666666666,57.12034298073162L89.83333333333334,56.115973017432495L91,55.61377597938885L92.16666666666667,54.986047766425415L93.33333333333333,54.421085140921875L94.5,54.60940601608972L95.66666666666667,54.16997456550598L96.83333333333333,53.542246352542534L98,52.977283727038994L99.16666666666667,52.47508668899536L100.33333333333333,51.721803188323975L101.5,51.34516143798828L102.66666666666666,50.717433225024834L103.83333333333334,49.83859443664551L105,49.27363181114197L106.16666666666666,48.896990060806274L107.33333333333334,48.5831138979305L108.5,48.14370656013489L109.66666666666667,48.080916859886855L110.83333333333333,47.39042305946353L112,46.63713955879214L113.16666666666667,46.386028983376235L114.33333333333333,45.69553518295291L115.5,45.13057255744937L116.66666666666667,44.50282023169777L117.83333333333333,44.00062319365415L119,43.49845026839864L120.16666666666666,43.18457410552284L121.33333333333334,42.68237706747922L122.5,42.24296972968361L123.66666666666666,41.615241516720175L124.83333333333334,41.364130941304296L126,41.23859976638448L127.16666666666667,41.301365353844375L128.33333333333331,40.9874891909686L129.5,40.61084744063291L130.66666666666666,40.234205690297216L131.83333333333334,40.171440102837295L133,39.669243064793676L134.16666666666669,39.29260131445798L135.33333333333334,39.41815660216591L136.5,38.539317813786596L137.66666666666666,38.476552226326675L138.83333333333334,38.03712077574298L140,37.660479025407284L141.16666666666666,37.03275081244382L142.33333333333331,36.71887464956805L143.5,35.965591148896664L144.66666666666669,36.028356736356585L145.83333333333334,35.90282556143674L147,35.65171498602089L148.16666666666666,35.58894939856097L149.33333333333334,35.149542060765356L150.5,35.149542060765356L151.66666666666666,35.2750732356852L152.83333333333331,34.835665897889584L154,34.270703272386044L155.16666666666669,33.89406152205035L156.33333333333334,33.83129593459043L157.5,33.454654184254736L158.66666666666666,33.01522273367104L159.83333333333331,32.95245714621112L161,32.82690185850319L162.16666666666669,32.57581539587542L163.33333333333334,32.26193923299965L164.5,32.1363839452917L165.66666666666666,31.759742194956004L166.83333333333334,31.006458694284618L168,30.81813781911677L169.16666666666666,30.943693106824725L170.33333333333331,30.81813781911677L171.5,30.441496068781078L172.66666666666669,30.629816943948924L173.83333333333334,30.56705135648903L175,30.441496068781078L176.16666666666666,30.378730481321185L177.33333333333331,30.25317519361323L178.5,30.190409606153338L179.66666666666669,30.127644018693417L180.83333333333334,30.00208873098549L182,29.751002268357723L183.16666666666666,29.311570817773998L184.33333333333334,29.311570817773998L185.5,29.562681393189877L186.66666666666666,29.311570817773998L187.83333333333331,29.562681393189877L189,29.37436051802203L190.16666666666669,29.499891692941844L191.33333333333334,29.186039642854183L192.5,29.060484355146258L193.66666666666666,29.186039642854183L194.83333333333331,29.12324994260615L196,28.997718767686337L197.16666666666669,29.12324994260615L198.33333333333334,29.12324994260615L199.5,29.248805230314105L200.66666666666666,29.248805230314105L201.83333333333334,29.186039642854183L203,29.12324994260615L204.16666666666666,29.060484355146258L205.33333333333331,29.060484355146258L206.5,28.997718767686337L207.66666666666669,29.311570817773998L208.83333333333334,28.997718767686337L210,29.060484355146258L211.16666666666666,28.87216347997841L212.33333333333331,28.30720085447487L213.5,27.930559104139178L214.66666666666669,28.118879979307025L215.83333333333334,27.867769403891145L217,27.616682941263377L218.16666666666666,27.616682941263377L219.33333333333334,27.365596478635638L220.5,27.616682941263377L221.66666666666666,27.867769403891145L222.83333333333331,27.805003816431224L224,27.74223822897133L225.16666666666669,27.930559104139178L226.33333333333334,27.805003816431224L227.5,28.30720085447487L228.66666666666666,28.24441115422684L229.83333333333331,28.369966441934764L231,28.24441115422684L232.16666666666669,28.495521729642718L233.33333333333334,28.80939789251849L234.5,29.37436051802203L235.66666666666666,29.311570817773998L236.83333333333334,29.68821256810969L238,29.813767855817645L239.16666666666666,30.315964893861263L240.33333333333331,30.378730481321185L241.5,30.629816943948924L242.66666666666669,30.692606644196957L243.83333333333334,30.81813781911677L245,31.320334857160418L246.16666666666666,31.508655732328265L247.33333333333331,31.63421102003619L248.5,31.257569269700497L249.66666666666669,31.006458694284618L250.83333333333334,31.571421319788158L252,31.885297482663958L253.16666666666666,32.4502601081675L254.33333333333334,32.889691558751196L255.5,33.01522273367104" style="fill: none;" fill="none"></path></g></g></g></g></g></g><g transform="translate(50, 178)" clip-path="url(#clip_1)"><clipPath id="clip_1"><rect width="280" height="22"></rect></clipPath><g><g><line x1="0" y1="0" x2="0" y2="5" style="visibility: inherit;" fill="rgb(0, 0, 0)" stroke="rgb(204, 204, 204)" stroke-width="1px"></line><line x1="23.333333333333332" y1="0" x2="23.333333333333332" y2="5" style="visibility: inherit;" fill="rgb(0, 0, 0)" stroke="rgb(204, 204, 204)" stroke-width="1px"></line><line x1="46.666666666666664" y1="0" x2="46.666666666666664" y2="5" style="visibility: inherit;" fill="rgb(0, 0, 0)" stroke="rgb(204, 204, 204)" stroke-width="1px"></line><line x1="70" y1="0" x2="70" y2="5" style="visibility: inherit;" fill="rgb(0, 0, 0)" stroke="rgb(204, 204, 204)" stroke-width="1px"></line><line x1="93.33333333333333" y1="0" x2="93.33333333333333" y2="5" style="visibility: inherit;" fill="rgb(0, 0, 0)" stroke="rgb(204, 204, 204)" stroke-width="1px"></line><line x1="116.66666666666667" y1="0" x2="116.66666666666667" y2="5" style="visibility: inherit;" fill="rgb(0, 0, 0)" stroke="rgb(204, 204, 204)" stroke-width="1px"></line><line x1="140" y1="0" x2="140" y2="5" style="visibility: inherit;" fill="rgb(0, 0, 0)" stroke="rgb(204, 204, 204)" stroke-width="1px"></line><line x1="163.33333333333334" y1="0" x2="163.33333333333334" y2="5" style="visibility: inherit;" fill="rgb(0, 0, 0)" stroke="rgb(204, 204, 204)" stroke-width="1px"></line><line x1="186.66666666666666" y1="0" x2="186.66666666666666" y2="5" style="visibility: inherit;" fill="rgb(0, 0, 0)" stroke="rgb(204, 204, 204)" stroke-width="1px"></line><line x1="210" y1="0" x2="210" y2="5" style="visibility: inherit;" fill="rgb(0, 0, 0)" stroke="rgb(204, 204, 204)" stroke-width="1px"></line><line x1="233.33333333333334" y1="0" x2="233.33333333333334" y2="5" style="visibility: inherit;" fill="rgb(0, 0, 0)" stroke="rgb(204, 204, 204)" stroke-width="1px"></line><line x1="256.66666666666663" y1="0" x2="256.66666666666663" y2="5" style="visibility: inherit;" fill="rgb(0, 0, 0)" stroke="rgb(204, 204, 204)" stroke-width="1px"></line><line x1="280" y1="0" x2="280" y2="5" style="visibility: inherit;" fill="rgb(0, 0, 0)" stroke="rgb(204, 204, 204)" stroke-width="1px"></line></g><g transform="translate(0, 8)"><text x="0" y="0" dx="0em" dy="0.95em" style="text-anchor: middle; visibility: hidden; font-family: &quot;Helvetica Neue&quot;, sans-serif; font-size: 12px; font-weight: 200;" fill="rgb(50, 49, 63)" stroke="none" stroke-width="1px">-20</text><text x="23.333333333333332" y="0" dx="0em" dy="0.95em" style="text-anchor: middle; visibility: inherit; font-family: &quot;Helvetica Neue&quot;, sans-serif; font-size: 12px; font-weight: 200;" fill="rgb(50, 49, 63)" stroke="none" stroke-width="1px">0</text><text x="46.666666666666664" y="0" dx="0em" dy="0.95em" style="text-anchor: middle; visibility: hidden; font-family: &quot;Helvetica Neue&quot;, sans-serif; font-size: 12px; font-weight: 200;" fill="rgb(50, 49, 63)" stroke="none" stroke-width="1px">20</text><text x="70" y="0" dx="0em" dy="0.95em" style="text-anchor: middle; visibility: inherit; font-family: &quot;Helvetica Neue&quot;, sans-serif; font-size: 12px; font-weight: 200;" fill="rgb(50, 49, 63)" stroke="none" stroke-width="1px">40</text><text x="93.33333333333333" y="0" dx="0em" dy="0.95em" style="text-anchor: middle; visibility: hidden; font-family: &quot;Helvetica Neue&quot;, sans-serif; font-size: 12px; font-weight: 200;" fill="rgb(50, 49, 63)" stroke="none" stroke-width="1px">60</text><text x="116.66666666666667" y="0" dx="0em" dy="0.95em" style="text-anchor: middle; visibility: inherit; font-family: &quot;Helvetica Neue&quot;, sans-serif; font-size: 12px; font-weight: 200;" fill="rgb(50, 49, 63)" stroke="none" stroke-width="1px">80</text><text x="140" y="0" dx="0em" dy="0.95em" style="text-anchor: middle; visibility: hidden; font-family: &quot;Helvetica Neue&quot;, sans-serif; font-size: 12px; font-weight: 200;" fill="rgb(50, 49, 63)" stroke="none" stroke-width="1px">100</text><text x="163.33333333333334" y="0" dx="0em" dy="0.95em" style="text-anchor: middle; visibility: inherit; font-family: &quot;Helvetica Neue&quot;, sans-serif; font-size: 12px; font-weight: 200;" fill="rgb(50, 49, 63)" stroke="none" stroke-width="1px">120</text><text x="186.66666666666666" y="0" dx="0em" dy="0.95em" style="text-anchor: middle; visibility: hidden; font-family: &quot;Helvetica Neue&quot;, sans-serif; font-size: 12px; font-weight: 200;" fill="rgb(50, 49, 63)" stroke="none" stroke-width="1px">140</text><text x="210" y="0" dx="0em" dy="0.95em" style="text-anchor: middle; visibility: inherit; font-family: &quot;Helvetica Neue&quot;, sans-serif; font-size: 12px; font-weight: 200;" fill="rgb(50, 49, 63)" stroke="none" stroke-width="1px">160</text><text x="233.33333333333334" y="0" dx="0em" dy="0.95em" style="text-anchor: middle; visibility: hidden; font-family: &quot;Helvetica Neue&quot;, sans-serif; font-size: 12px; font-weight: 200;" fill="rgb(50, 49, 63)" stroke="none" stroke-width="1px">180</text><text x="256.66666666666663" y="0" dx="0em" dy="0.95em" style="text-anchor: middle; visibility: inherit; font-family: &quot;Helvetica Neue&quot;, sans-serif; font-size: 12px; font-weight: 200;" fill="rgb(50, 49, 63)" stroke="none" stroke-width="1px">200</text><text x="280" y="0" dx="0em" dy="0.95em" style="text-anchor: middle; visibility: hidden; font-family: &quot;Helvetica Neue&quot;, sans-serif; font-size: 12px; font-weight: 200;" fill="rgb(50, 49, 63)" stroke="none" stroke-width="1px">220</text></g><line x1="0" y1="0" x2="280" y2="0" fill="rgb(0, 0, 0)" stroke="rgb(204, 204, 204)" stroke-width="1px"></line></g></g></g></g></svg>