<svg viewBox="0 0 330 200" xmlns="http://www.w3.org/2000/svg"><g><g><g><g><g><line x1="70" y1="169.96076352056843" x2="65" y2="169.96076352056843" style="visibility: inherit;" fill="rgb(0, 0, 0)" stroke="rgb(204, 204, 204)" stroke-width="1px"></line><line x1="70" y1="156.83098267930515" x2="65" y2="156.83098267930515" style="visibility: inherit;" fill="rgb(0, 0, 0)" stroke="rgb(204, 204, 204)" stroke-width="1px"></line><line x1="70" y1="143.70120183804187" x2="65" y2="143.70120183804187" style="visibility: inherit;" fill="rgb(0, 0, 0)" stroke="rgb(204, 204, 204)" stroke-width="1px"></line><line x1="70" y1="130.57142099677858" x2="65" y2="130.57142099677858" style="visibility: inherit;" fill="rgb(0, 0, 0)" stroke="rgb(204, 204, 204)" stroke-width="1px"></line><line x1="70" y1="117.4416401555153" x2="65" y2="117.4416401555153" style="visibility: inherit;" fill="rgb(0, 0, 0)" stroke="rgb(204, 204, 204)" stroke-width="1px"></line><line x1="70" y1="104.31185931425202" x2="65" y2="104.31185931425202" style="visibility: inherit;" fill="rgb(0, 0, 0)" stroke="rgb(204, 204, 204)" stroke-width="1px"></line><line x1="70" y1="91.18207847298874" x2="65" y2="91.18207847298874" style="visibility: inherit;" fill="rgb(0, 0, 0)" stroke="rgb(204, 204, 204)" stroke-width="1px"></line><line x1="70" y1="78.05229763172545" x2="65" y2="78.05229763172545" style="visibility: inherit;" fill="rgb(0, 0, 0)" stroke="rgb(204, 204, 204)" stroke-width="1px"></line><line x1="70" y1="64.92251679046217" x2="65" y2="64.92251679046217" style="visibility: inherit;" fill="rgb(0, 0, 0)" stroke="rgb(204, 204, 204)" stroke-width="1px"></line><line x1="70" y1="51.79273594919887" x2="65" y2="51.79273594919887" style="visibility: inherit;" fill="rgb(0, 0, 0)" stroke="rgb(204, 204, 204)" stroke-width="1px"></line><line x1="70" y1="38.6629551079356" x2="65" y2="38.6629551079356" style="visibility: inherit;" fill="rgb(0, 0, 0)" stroke="rgb(204, 204, 204)" stroke-width="1px"></line><line x1="70" y1="25.53317426667229" x2="65" y2="25.53317426667229" style="visibility: inherit;" fill="rgb(0, 0, 0)" stroke="rgb(204, 204, 204)" stroke-width="1px"></line><line x1="70" y1="12.403393425409007" x2="65" y2="12.403393425409007" style="visibility: inherit;" fill="rgb(0, 0, 0)" stroke="rgb(204, 204, 204)" stroke-width="1px"></line></g><g transform="translate(60, 0)"><text x="0" y="169.96076352056843" dx="0em" dy="0.3em" style="text-anchor: end; visibility: inherit; font-family: &quot;Helvetica Neue&quot;, sans-serif; font-size: 12px; font-weight: 200;" fill="rgb(50, 49, 63)" stroke="none" stroke-width="1px">-2e+3</text><text x="0" y="156.83098267930515" dx="0em" dy="0.3em" style="text-anchor: end; visibility: hidden; font-family: &quot;Helvetica Neue&quot;, sans-serif; font-size: 12px; font-weight: 200;" fill="rgb(50, 49, 63)" stroke="none" stroke-width="1px">0</text><text x="0" y="143.70120183804187" dx="0em" dy="0.3em" style="text-anchor: end; visibility: inherit; font-family: &quot;Helvetica Neue&quot;, sans-serif; font-size: 12px; font-weight: 200;" fill="rgb(50, 49, 63)" stroke="none" stroke-width="1px">2e+3</text><text x="0" y="130.57142099677858" dx="0em" dy="0.3em" style="text-anchor: end; visibility: hidden; font-family: &quot;Helvetica Neue&quot;, sans-serif; font-size: 12px; font-weight: 200;" fill="rgb(50, 49, 63)" stroke="none" stroke-width="1px">4e+3</text><text x="0" y="117.4416401555153" dx="0em" dy="0.3em" style="text-anchor: end; visibility: inherit; font-family: &quot;Helvetica Neue&quot;, sans-serif; font-size: 12px; font-weight: 200;" fill="rgb(50, 49, 63)" stroke="none" stroke-width="1px">6e+3</text><text x="0" y="104.31185931425202" dx="0em" dy="0.3em" style="text-anchor: end; visibility: hidden; font-family: &quot;Helvetica Neue&quot;, sans-serif; font-size: 12px; font-weight: 200;" fill="rgb(50, 49, 63)" stroke="none" stroke-width="1px">8e+3</text><text x="0" y="91.18207847298874" dx="0em" dy="0.3em" style="text-anchor: end; visibility: inherit; font-family: &quot;Helvetica Neue&quot;, sans-serif; font-size: 12px; font-weight: 200;" fill="rgb(50, 49, 63)" stroke="none" stroke-width="1px">1e+4</text><text x="0" y="78.05229763172545" dx="0em" dy="0.3em" style="text-anchor: end; visibility: hidden; font-family: &quot;Helvetica Neue&quot;, sans-serif; font-size: 12px; font-weight: 200;" fill="rgb(50, 49, 63)" stroke="none" stroke-width="1px">1.2e+4</text><text x="0" y="64.92251679046217" dx="0em" dy="0.3em" style="text-anchor: end; visibility: inherit; font-family: &quot;Helvetica Neue&quot;, sans-serif; font-size: 12px; font-weight: 200;" fill="rgb(50, 49, 63)" stroke="none" stroke-width="1px">1.4e+4</text><text x="0" y="51.79273594919887" dx="0em" dy="0.3em" style="text-anchor: end; visibility: hidden; font-family: &quot;Helvetica Neue&quot;, sans-serif; font-size: 12px; font-weight: 200;" fill="rgb(50, 49, 63)" stroke="none" stroke-width="1px">1.6e+4</text><text x="0" y="38.6629551079356" dx="0em" dy="0.3em" style="text-anchor: end; visibility: inherit; font-family: &quot;Helvetica Neue&quot;, sans-serif; font-size: 12px; font-weight: 200;" fill="rgb(50, 49, 63)" stroke="none" stroke-width="1px">1.8e+4</text><text x="0" y="25.53317426667229" dx="0em" dy="0.3em" style="text-anchor: end; visibility: hidden; font-family: &quot;Helvetica Neue&quot;, sans-serif; font-size: 12px; font-weight: 200;" fill="rgb(50, 49, 63)" stroke="none" stroke-width="1px">2e+4</text><text x="0" y="12.403393425409007" dx="0em" dy="0.3em" style="text-anchor: end; visibility: inherit; font-family: &quot;Helvetica Neue&quot;, sans-serif; font-size: 12px; font-weight: 200;" fill="rgb(50, 49, 63)" stroke="none" stroke-width="1px">2.2e+4</text></g><line x1="70" y1="0" x2="70" y2="178" fill="rgb(0, 0, 0)" stroke="rgb(204, 204, 204)" stroke-width="1px"></line></g></g><g transform="translate(70, 0)" clip-path="url(#clip_0)"><clipPath id="clip_0"><rect width="260" height="178"></rect></clipPath><g><g><g><line x1="16.942782379501065" y1="0" x2="16.942782379501065" y2="178" fill="rgb(0, 0, 0)" stroke="rgb(60, 60, 60)" stroke-width="1px" opacity="0.25"></line><line x1="36.12111394539132" y1="0" x2="36.12111394539132" y2="178" fill="rgb(0, 0, 0)" stroke="rgb(60, 60, 60)" stroke-width="1px" opacity="0.25"></line><line x1="55.29944551128159" y1="0" x2="55.29944551128159" y2="178" fill="rgb(0, 0, 0)" stroke="rgb(60, 60, 60)" stroke-width="1px" opacity="0.25"></line><line x1="74.47777707717184" y1="0" x2="74.47777707717184" y2="178" fill="rgb(0, 0, 0)" stroke="rgb(60, 60, 60)" stroke-width="1px" opacity="0.25"></line><line x1="93.65610864306211" y1="0" x2="93.65610864306211" y2="178" fill="rgb(0, 0, 0)" stroke="rgb(60, 60, 60)" stroke-width="1px" opacity="0.25"></line><line x1="112.83444020895236" y1="0" x2="112.83444020895236" y2="178" fill="rgb(0, 0, 0)" stroke="rgb(60, 60, 60)" stroke-width="1px" opacity="0.25"></line><line x1="132.01277177484263" y1="0" x2="132.01277177484263" y2="178" fill="rgb(0, 0, 0)" stroke="rgb(60, 60, 60)" stroke-width="1px" opacity="0.25"></line><line x1="151.1911033407329" y1="0" x2="151.1911033407329" y2="178" fill="rgb(0, 0, 0)" stroke="rgb(60, 60, 60)" stroke-width="1px" opacity="0.25"></line><line x1="170.36943490662313" y1="0" x2="170.36943490662313" y2="178" fill="rgb(0, 0, 0)" stroke="rgb(60, 60, 60)" stroke-width="1px" opacity="0.25"></line><line x1="189.54776647251342" y1="0" x2="189.54776647251342" y2="178" fill="rgb(0, 0, 0)" stroke="rgb(60, 60, 60)" stroke-width="1px" opacity="0.25"></line><line x1="208.72609803840368" y1="0" x2="208.72609803840368" y2="178" fill="rgb(0, 0, 0)" stroke="rgb(60, 60, 60)" stroke-width="1px" opacity="0.25"></line><line x1="227.90442960429394" y1="0" x2="227.90442960429394" y2="178" fill="rgb(0, 0, 0)" stroke="rgb(60, 60, 60)" stroke-width="1px" opacity="0.25"></line><line x1="247.0827611701842" y1="0" x2="247.0827611701842" y2="178" fill="rgb(0, 0, 0)" stroke="rgb(60, 60, 60)" stroke-width="1px" opacity="0.25"></line></g><g><line x1="0" y1="169.96076352056843" x2="260" y2="169.96076352056843" fill="rgb(0, 0, 0)" stroke="rgb(60, 60, 60)" stroke-width="1px" opacity="0.25"></line><line x1="0" y1="156.83098267930515" x2="260" y2="156.83098267930515" fill="rgb(0, 0, 0)" stroke="rgb(60, 60, 60)" stroke-width="1px" opacity="0.25"></line><line x1="0" y1="143.70120183804187" x2="260" y2="143.70120183804187" fill="rgb(0, 0, 0)" stroke="rgb(60, 60, 60)" stroke-width="1px" opacity="0.25"></line><line x1="0" y1="130.57142099677858" x2="260" y2="130.57142099677858" fill="rgb(0, 0, 0)" stroke="rgb(60, 60, 60)" stroke-width="1px" opacity="0.25"></line><line x1="0" y1="117.4416401555153" x2="260" y2="117.4416401555153" fill="rgb(0, 0, 0)" stroke="rgb(60, 60, 60)" stroke-width="1px" opacity="0.25"></line><line x1="0" y1="104.31185931425202" x2="260" y2="104.31185931425202" fill="rgb(0, 0, 0)" stroke="rgb(60, 60, 60)" stroke-width="1px" opacity="0.25"></line><line x1="0" y1="91.18207847298874" x2="260" y2="91.18207847298874" fill="rgb(0, 0, 0)" stroke="rgb(60, 60, 60)" stroke-width="1px" opacity="0.25"></line><line x1="0" y1="78.05229763172545" x2="260" y2="78.05229763172545" fill="rgb(0, 0, 0)" stroke="rgb(60, 60, 60)" stroke-width="1px" opacity="0.25"></line><line x1="0" y1="64.92251679046217" x2="260" y2="64.92251679046217" fill="rgb(0, 0, 0)" stroke="rgb(60, 60, 60)" stroke-width="1px" opacity="0.25"></line><line x1="0" y1="51.79273594919887" x2="260" y2="51.79273594919887" fill="rgb(0, 0, 0)" stroke="rgb(60, 60, 60)" stroke-width="1px" opacity="0.25"></line><line x1="0" y1="38.6629551079356" x2="260" y2="38.6629551079356" fill="rgb(0, 0, 0)" stroke="rgb(60, 60, 60)" stroke-width="1px" opacity="0.25"></line><line x1="0" y1="25.53317426667229" x2="260" y2="25.53317426667229" fill="rgb(0, 0, 0)" stroke="rgb(60, 60, 60)" stroke-width="1px" opacity="0.25"></line><line x1="0" y1="12.403393425409007" x2="260" y2="12.403393425409007" fill="rgb(0, 0, 0)" stroke="rgb(60, 60, 60)" stroke-width="1px" opacity="0.25"></line></g></g></g><g><g><line x1="0" y1="156.83098267930515" x2="260" y2="156.83098267930515" fill="rgb(0, 0, 0)" stroke="rgb(153, 153, 153)" stroke-width="1.5px"></line></g></g><g><g><line x1="36.12111394539132" y1="0" x2="36.12111394539132" y2="178" fill="rgb(0, 0, 0)" stroke="rgb(153, 153, 153)" stroke-width="1.5px"></line></g></g><g><g><g><g><g><path stroke="rgb(51, 187, 238)" stroke-width="2px" d="M36.12111394539132,156.82119897498353L39.95678025856938,156.8216287605234L43.79244657174743,156.82195704618704L47.62811288492548,156.8222267363138L51.46377919810354,156.8224542410415L55.29944551128159,156.82264785805867L59.13511182445964,156.8228128127951L62.97077813763769,156.8229529234244L66.80644445081575,156.82307123372934L70.64211076399378,156.82317021843824L74.47777707717184,156.82325192167573L78.3134433903499,156.8233179510702L82.14910970352796,156.82336949575247L85.984776016706,156.8234073324649L89.82044232988406,156.82343187833524L93.65610864306211,156.82344319196363L97.49177495624015,156.82344078229116L101.3274412694182,156.82342349414614L105.16310758259627,156.82338934003485L108.99877389577432,156.8233351537833L112.83444020895236,156.82325610787373L116.67010652213042,156.82314499137806L120.50577283530848,156.8229917591111L124.34143914848651,156.8227830575995L128.17710546166458,156.82250230971727L132.01277177484263,156.8221292677237L135.84843808802069,156.82163997235233L139.68410440119874,156.82100443525587L143.51977071437676,156.82018351987773L147.35543702755484,156.8191240936058L151.1911033407329,156.81774788427643L155.02676965391095,156.8159321617266L158.862435967089,156.81347826784972L162.69810228026705,156.81007018240575L166.5337685934451,156.80529297512317L170.36943490662313,156.79865210548408L174.2051012198012,156.7887603919096L178.04076753297926,156.7742714475882L181.8764338461573,156.75411211161685L185.71210015933536,156.7189910954959L189.54776647251342,156.6507828610916L193.38343278569147,156.48631274513457L197.21909909886952,156.05661316544573L201.05476541204757,154.4729181926133L204.89043172522562,147.90163896111807L208.72609803840368,67.53744683068955L212.56176435158173,-1292.7958387565513" style="fill: none;" fill="none"></path></g><g><path stroke="rgb(204, 51, 17)" stroke-width="2px" d="M36.12111394539132,156.82059477023597L39.95678025856938,156.82173784549303L43.79244657174743,156.82236888333063L47.62811288492548,156.82279749763597L51.46377919810354,156.82311938737047L55.29944551128159,156.82337460929827L59.13511182445964,156.82358361914802L62.97077813763769,156.82375846432325L66.80644445081575,156.82390700731895L70.64211076399378,156.8240347761065L74.47777707717184,156.82414588057776L78.3134433903499,156.8242434965398L82.14910970352796,156.82433017127556L85.984776016706,156.8244080054507L89.82044232988406,156.82447875024934L93.65610864306211,156.8245439035098L97.49177495624015,156.8246047731376L101.3274412694182,156.82466246422896L105.16310758259627,156.82471788296644L108.99877389577432,156.8247716341495L112.83444020895236,156.82482397672314L116.67010652213042,156.82487467574973L120.50577283530848,156.8249227887461L124.34143914848651,156.82496658658L128.17710546166458,156.82500328325057L132.01277177484263,156.8250287616747L135.84843808802069,156.8250375916523L139.68410440119874,156.8250229805371L143.51977071437676,156.82497706778804L147.35543702755484,156.8248908409376L151.1911033407329,156.82475295948626L155.02676965391095,156.82454631171805L158.862435967089,156.8242445229001L162.69810228026705,156.8238105014614L166.5337685934451,156.8231774254993L170.36943490662313,156.82222848806336L174.2051012198012,156.8207848920796L178.04076753297926,156.8184283963783L181.8764338461573,156.81427696088815L185.71210015933536,156.80648858257462L189.54776647251342,156.79140191977027L193.38343278569147,156.7608448973436L197.21909909886952,156.6768622354556L201.05476541204757,156.4202464366458L204.89043172522562,155.3817463451001L208.72609803840368,149.97454802878474L212.56176435158173,106.11604721249299L216.39743066475978,-169.60552316691297L220.23309697793786,-41.1890876821889L224.06876329111589,36.8669073350419" style="fill: none;" fill="none"></path></g></g></g></g><g opacity="0.2"><g><g><g><path stroke="rgb(51, 187, 238)" stroke-width="2px" d="M36.12111394539132,156.82119897498353L39.95678025856938,156.82188663184735L43.79244657174743,156.8222722004241L47.62811288492548,156.8225438919029L51.46377919810354,156.82275127121395L55.29944551128159,156.82291570009554L59.13511182445964,156.82304870070746L62.97077813763769,156.823157206067L66.80644445081575,156.8232457184485L70.64211076399378,156.82331719919492L74.47777707717184,156.82337373548958L78.3134433903499,156.8234166358329L82.14910970352796,156.82344664447356L85.984776016706,156.8234640134075L89.82044232988406,156.82346866828803L93.65610864306211,156.82346015442698L97.49177495624015,156.82343716880212L101.3274412694182,156.82339756631802L105.16310758259627,156.82333811407096L108.99877389577432,156.8232538793588L112.83444020895236,156.82313754334444L116.67010652213042,156.82297832029093L120.50577283530848,156.82276191373592L124.34143914848651,156.8224700078044L128.17710546166458,156.8220811898894L132.01277177484263,156.82156970632417L135.84843808802069,156.82090603054723L139.68410440119874,156.82005113058688L143.51977071437676,156.8189521475667L147.35543702755484,156.81753495478344L151.1911033407329,156.81568357073874L155.02676965391095,156.81320857826316L158.862435967089,156.80979742732734L162.69810228026705,156.8049580544839L166.5337685934451,156.79812716440463L170.36943490662313,156.7886908011967L174.2051012198012,156.77392282170092L178.04076753297926,156.7525380312406L181.8764338461573,156.72387310777214L185.71210015933536,156.66630957143184L189.54776647251342,156.5484705096219L193.38343278569147,156.23960757139687L197.21909909886952,155.41206379622264L201.05476541204757,152.09737573405056L204.89043172522562,138.0447201155829L208.72609803840368,-53.00884135242299L212.56176435158173,-3333.2957670101523L216.39743066475978,143.47632469014093L220.23309697793786,151.2944304137565L224.06876329111589,150.79801627148285" style="fill: none;" fill="none"></path></g><g><path stroke="rgb(204, 51, 17)" stroke-width="2px" d="M36.12111394539132,156.82059477023597L39.95678025856938,156.8224236906473L43.79244657174743,156.8229746796547L47.62811288492548,156.82330154805905L51.46377919810354,156.82353964660786L55.29944551128159,156.82372767310432L59.13511182445964,156.82388250657732L62.97077813763769,156.82401339026728L66.80644445081575,156.8241260793846L70.64211076399378,156.8242244978653L74.47777707717184,156.82431152957528L78.3134433903499,156.82438938926109L82.14910970352796,156.82445990037115L85.984776016706,156.82452460422817L89.82044232988406,156.82458478428947L93.65610864306211,156.82464158744935L97.49177495624015,156.8246960518213L101.3274412694182,156.82474898621825L105.16310758259627,156.82480100263015L108.99877389577432,156.82485225601104L112.83444020895236,156.82490248771296L116.67010652213042,156.8249507226214L120.50577283530848,156.82499495729073L124.34143914848651,156.825032282812L128.17710546166458,156.8250583279956L132.01277177484263,156.82506697920223L135.84843808802069,156.82505083659612L139.68410440119874,156.82500106388673L143.51977071437676,156.8249081987067L147.35543702755484,156.82476150070966L151.1911033407329,156.824546137355L155.02676965391095,156.8242363401068L158.862435967089,156.82379183970926L162.69810228026705,156.82315946933443L166.5337685934451,156.82222781158333L170.36943490662313,156.82080508193394L174.2051012198012,156.81861949812625L178.04076753297926,156.81489365284824L181.8764338461573,156.80804980767604L185.71210015933536,156.79480601513035L189.54776647251342,156.768771925594L193.38343278569147,156.7150093637403L197.21909909886952,156.55088824268418L201.05476541204757,156.03532273854228L204.89043172522562,153.82399620805145L208.72609803840368,141.86375055515478L212.56176435158173,40.32829599215836L216.39743066475978,-583.1878787205453L220.23309697793786,151.43556554057224L224.06876329111589,153.95089985931088" style="fill: none;" fill="none"></path></g></g></g></g></g></g><g transform="translate(70, 178)" clip-path="url(#clip_1)"><clipPath id="clip_1"><rect width="260" height="22"></rect></clipPath><g><g><line x1="16.942782379501065" y1="0" x2="16.942782379501065" y2="5" style="visibility: inherit;" fill="rgb(0, 0, 0)" stroke="rgb(204, 204, 204)" stroke-width="1px"></line><line x1="36.12111394539132" y1="0" x2="36.12111394539132" y2="5" style="visibility: inherit;" fill="rgb(0, 0, 0)" stroke="rgb(204, 204, 204)" stroke-width="1px"></line><line x1="55.29944551128159" y1="0" x2="55.29944551128159" y2="5" style="visibility: inherit;" fill="rgb(0, 0, 0)" stroke="rgb(204, 204, 204)" stroke-width="1px"></line><line x1="74.47777707717184" y1="0" x2="74.47777707717184" y2="5" style="visibility: inherit;" fill="rgb(0, 0, 0)" stroke="rgb(204, 204, 204)" stroke-width="1px"></line><line x1="93.65610864306211" y1="0" x2="93.65610864306211" y2="5" style="visibility: inherit;" fill="rgb(0, 0, 0)" stroke="rgb(204, 204, 204)" stroke-width="1px"></line><line x1="112.83444020895236" y1="0" x2="112.83444020895236" y2="5" style="visibility: inherit;" fill="rgb(0, 0, 0)" stroke="rgb(204, 204, 204)" stroke-width="1px"></line><line x1="132.01277177484263" y1="0" x2="132.01277177484263" y2="5" style="visibility: inherit;" fill="rgb(0, 0, 0)" stroke="rgb(204, 204, 204)" stroke-width="1px"></line><line x1="151.1911033407329" y1="0" x2="151.1911033407329" y2="5" style="visibility: inherit;" fill="rgb(0, 0, 0)" stroke="rgb(204, 204, 204)" stroke-width="1px"></line><line x1="170.36943490662313" y1="0" x2="170.36943490662313" y2="5" style="visibility: inherit;" fill="rgb(0, 0, 0)" stroke="rgb(204, 204, 204)" stroke-width="1px"></line><line x1="189.54776647251342" y1="0" x2="189.54776647251342" y2="5" style="visibility: inherit;" fill="rgb(0, 0, 0)" stroke="rgb(204, 204, 204)" stroke-width="1px"></line><line x1="208.72609803840368" y1="0" x2="208.72609803840368" y2="5" style="visibility: inherit;" fill="rgb(0, 0, 0)" stroke="rgb(204, 204, 204)" stroke-width="1px"></line><line x1="227.90442960429394" y1="0" x2="227.90442960429394" y2="5" style="visibility: inherit;" fill="rgb(0, 0, 0)" stroke="rgb(204, 204, 204)" stroke-width="1px"></line><line x1="247.0827611701842" y1="0" x2="247.0827611701842" y2="5" style="visibility: inherit;" fill="rgb(0, 0, 0)" stroke="rgb(204, 204, 204)" stroke-width="1px"></line></g><g transform="translate(0, 8)"><text x="16.942782379501065" y="0" dx="0em" dy="0.95em" style="text-anchor: middle; visibility: inherit; font-family: &quot;Helvetica Neue&quot;, sans-serif; font-size: 12px; font-weight: 200;" fill="rgb(50, 49, 63)" stroke="none" stroke-width="1px">-5</text><text x="36.12111394539132" y="0" dx="0em" dy="0.95em" style="text-anchor: middle; visibility: inherit; font-family: &quot;Helvetica Neue&quot;, sans-serif; font-size: 12px; font-weight: 200;" fill="rgb(50, 49, 63)" stroke="none" stroke-width="1px">0</text><text x="55.29944551128159" y="0" dx="0em" dy="0.95em" style="text-anchor: middle; visibility: inherit; font-family: &quot;Helvetica Neue&quot;, sans-serif; font-size: 12px; font-weight: 200;" fill="rgb(50, 49, 63)" stroke="none" stroke-width="1px">5</text><text x="74.47777707717184" y="0" dx="0em" dy="0.95em" style="text-anchor: middle; visibility: inherit; font-family: &quot;Helvetica Neue&quot;, sans-serif; font-size: 12px; font-weight: 200;" fill="rgb(50, 49, 63)" stroke="none" stroke-width="1px">10</text><text x="93.65610864306211" y="0" dx="0em" dy="0.95em" style="text-anchor: middle; visibility: inherit; font-family: &quot;Helvetica Neue&quot;, sans-serif; font-size: 12px; font-weight: 200;" fill="rgb(50, 49, 63)" stroke="none" stroke-width="1px">15</text><text x="112.83444020895236" y="0" dx="0em" dy="0.95em" style="text-anchor: middle; visibility: inherit; font-family: &quot;Helvetica Neue&quot;, sans-serif; font-size: 12px; font-weight: 200;" fill="rgb(50, 49, 63)" stroke="none" stroke-width="1px">20</text><text x="132.01277177484263" y="0" dx="0em" dy="0.95em" style="text-anchor: middle; visibility: inherit; font-family: &quot;Helvetica Neue&quot;, sans-serif; font-size: 12px; font-weight: 200;" fill="rgb(50, 49, 63)" stroke="none" stroke-width="1px">25</text><text x="151.1911033407329" y="0" dx="0em" dy="0.95em" style="text-anchor: middle; visibility: inherit; font-family: &quot;Helvetica Neue&quot;, sans-serif; font-size: 12px; font-weight: 200;" fill="rgb(50, 49, 63)" stroke="none" stroke-width="1px">30</text><text x="170.36943490662313" y="0" dx="0em" dy="0.95em" style="text-anchor: middle; visibility: inherit; font-family: &quot;Helvetica Neue&quot;, sans-serif; font-size: 12px; font-weight: 200;" fill="rgb(50, 49, 63)" stroke="none" stroke-width="1px">35</text><text x="189.54776647251342" y="0" dx="0em" dy="0.95em" style="text-anchor: middle; visibility: inherit; font-family: &quot;Helvetica Neue&quot;, sans-serif; font-size: 12px; font-weight: 200;" fill="rgb(50, 49, 63)" stroke="none" stroke-width="1px">40</text><text x="208.72609803840368" y="0" dx="0em" dy="0.95em" style="text-anchor: middle; visibility: inherit; font-family: &quot;Helvetica Neue&quot;, sans-serif; font-size: 12px; font-weight: 200;" fill="rgb(50, 49, 63)" stroke="none" stroke-width="1px">45</text><text x="227.90442960429394" y="0" dx="0em" dy="0.95em" style="text-anchor: middle; visibility: inherit; font-family: &quot;Helvetica Neue&quot;, sans-serif; font-size: 12px; font-weight: 200;" fill="rgb(50, 49, 63)" stroke="none" stroke-width="1px">50</text><text x="247.0827611701842" y="0" dx="0em" dy="0.95em" style="text-anchor: middle; visibility: inherit; font-family: &quot;Helvetica Neue&quot;, sans-serif; font-size: 12px; font-weight: 200;" fill="rgb(50, 49, 63)" stroke="none" stroke-width="1px">55</text></g><line x1="0" y1="0" x2="260" y2="0" fill="rgb(0, 0, 0)" stroke="rgb(204, 204, 204)" stroke-width="1px"></line></g></g></g></g></svg>