<svg viewBox="0 0 330 200" xmlns="http://www.w3.org/2000/svg"><g><g><g><g><g><line x1="50" y1="178" x2="45" y2="178" style="visibility: inherit;" fill="rgb(0, 0, 0)" stroke="rgb(204, 204, 204)" stroke-width="1px"></line><line x1="50" y1="155.75" x2="45" y2="155.75" style="visibility: inherit;" fill="rgb(0, 0, 0)" stroke="rgb(204, 204, 204)" stroke-width="1px"></line><line x1="50" y1="133.5" x2="45" y2="133.5" style="visibility: inherit;" fill="rgb(0, 0, 0)" stroke="rgb(204, 204, 204)" stroke-width="1px"></line><line x1="50" y1="111.24999999999999" x2="45" y2="111.24999999999999" style="visibility: inherit;" fill="rgb(0, 0, 0)" stroke="rgb(204, 204, 204)" stroke-width="1px"></line><line x1="50" y1="88.99999999999999" x2="45" y2="88.99999999999999" style="visibility: inherit;" fill="rgb(0, 0, 0)" stroke="rgb(204, 204, 204)" stroke-width="1px"></line><line x1="50" y1="66.75" x2="45" y2="66.75" style="visibility: inherit;" fill="rgb(0, 0, 0)" stroke="rgb(204, 204, 204)" stroke-width="1px"></line><line x1="50" y1="44.5" x2="45" y2="44.5" style="visibility: inherit;" fill="rgb(0, 0, 0)" stroke="rgb(204, 204, 204)" stroke-width="1px"></line><line x1="50" y1="22.25" x2="45" y2="22.25" style="visibility: inherit;" fill="rgb(0, 0, 0)" stroke="rgb(204, 204, 204)" stroke-width="1px"></line><line x1="50" y1="0" x2="45" y2="0" style="visibility: inherit;" fill="rgb(0, 0, 0)" stroke="rgb(204, 204, 204)" stroke-width="1px"></line></g><g transform="translate(40, 0)"><text x="0" y="178" dx="0em" dy="0.3em" style="text-anchor: end; visibility: hidden; font-family: &quot;Helvetica Neue&quot;, sans-serif; font-size: 12px; font-weight: 200;" fill="rgb(50, 49, 63)" stroke="none" stroke-width="1px">-0.1</text><text x="0" y="155.75" dx="0em" dy="0.3em" style="text-anchor: end; visibility: inherit; font-family: &quot;Helvetica Neue&quot;, sans-serif; font-size: 12px; font-weight: 200;" fill="rgb(50, 49, 63)" stroke="none" stroke-width="1px">0</text><text x="0" y="133.5" dx="0em" dy="0.3em" style="text-anchor: end; visibility: hidden; font-family: &quot;Helvetica Neue&quot;, sans-serif; font-size: 12px; font-weight: 200;" fill="rgb(50, 49, 63)" stroke="none" stroke-width="1px">0.1</text><text x="0" y="111.24999999999999" dx="0em" dy="0.3em" style="text-anchor: end; visibility: inherit; font-family: &quot;Helvetica Neue&quot;, sans-serif; font-size: 12px; font-weight: 200;" fill="rgb(50, 49, 63)" stroke="none" stroke-width="1px">0.2</text><text x="0" y="88.99999999999999" dx="0em" dy="0.3em" style="text-anchor: end; visibility: hidden; font-family: &quot;Helvetica Neue&quot;, sans-serif; font-size: 12px; font-weight: 200;" fill="rgb(50, 49, 63)" stroke="none" stroke-width="1px">0.3</text><text x="0" y="66.75" dx="0em" dy="0.3em" style="text-anchor: end; visibility: inherit; font-family: &quot;Helvetica Neue&quot;, sans-serif; font-size: 12px; font-weight: 200;" fill="rgb(50, 49, 63)" stroke="none" stroke-width="1px">0.4</text><text x="0" y="44.5" dx="0em" dy="0.3em" style="text-anchor: end; visibility: hidden; font-family: &quot;Helvetica Neue&quot;, sans-serif; font-size: 12px; font-weight: 200;" fill="rgb(50, 49, 63)" stroke="none" stroke-width="1px">0.5</text><text x="0" y="22.25" dx="0em" dy="0.3em" style="text-anchor: end; visibility: inherit; font-family: &quot;Helvetica Neue&quot;, sans-serif; font-size: 12px; font-weight: 200;" fill="rgb(50, 49, 63)" stroke="none" stroke-width="1px">0.6</text><text x="0" y="0" dx="0em" dy="0.3em" style="text-anchor: end; visibility: hidden; font-family: &quot;Helvetica Neue&quot;, sans-serif; font-size: 12px; font-weight: 200;" fill="rgb(50, 49, 63)" stroke="none" stroke-width="1px">0.7</text></g><line x1="50" y1="0" x2="50" y2="178" fill="rgb(0, 0, 0)" stroke="rgb(204, 204, 204)" stroke-width="1px"></line></g></g><g transform="translate(50, 0)" clip-path="url(#clip_0)"><clipPath id="clip_0"><rect width="280" height="178"></rect></clipPath><g><g><g><line x1="0" y1="0" x2="0" y2="178" fill="rgb(0, 0, 0)" stroke="rgb(60, 60, 60)" stroke-width="1px" opacity="0.25"></line><line x1="23.333333333333332" y1="0" x2="23.333333333333332" y2="178" fill="rgb(0, 0, 0)" stroke="rgb(60, 60, 60)" stroke-width="1px" opacity="0.25"></line><line x1="46.666666666666664" y1="0" x2="46.666666666666664" y2="178" fill="rgb(0, 0, 0)" stroke="rgb(60, 60, 60)" stroke-width="1px" opacity="0.25"></line><line x1="70" y1="0" x2="70" y2="178" fill="rgb(0, 0, 0)" stroke="rgb(60, 60, 60)" stroke-width="1px" opacity="0.25"></line><line x1="93.33333333333333" y1="0" x2="93.33333333333333" y2="178" fill="rgb(0, 0, 0)" stroke="rgb(60, 60, 60)" stroke-width="1px" opacity="0.25"></line><line x1="116.66666666666667" y1="0" x2="116.66666666666667" y2="178" fill="rgb(0, 0, 0)" stroke="rgb(60, 60, 60)" stroke-width="1px" opacity="0.25"></line><line x1="140" y1="0" x2="140" y2="178" fill="rgb(0, 0, 0)" stroke="rgb(60, 60, 60)" stroke-width="1px" opacity="0.25"></line><line x1="163.33333333333334" y1="0" x2="163.33333333333334" y2="178" fill="rgb(0, 0, 0)" stroke="rgb(60, 60, 60)" stroke-width="1px" opacity="0.25"></line><line x1="186.66666666666666" y1="0" x2="186.66666666666666" y2="178" fill="rgb(0, 0, 0)" stroke="rgb(60, 60, 60)" stroke-width="1px" opacity="0.25"></line><line x1="210" y1="0" x2="210" y2="178" fill="rgb(0, 0, 0)" stroke="rgb(60, 60, 60)" stroke-width="1px" opacity="0.25"></line><line x1="233.33333333333334" y1="0" x2="233.33333333333334" y2="178" fill="rgb(0, 0, 0)" stroke="rgb(60, 60, 60)" stroke-width="1px" opacity="0.25"></line><line x1="256.66666666666663" y1="0" x2="256.66666666666663" y2="178" fill="rgb(0, 0, 0)" stroke="rgb(60, 60, 60)" stroke-width="1px" opacity="0.25"></line><line x1="280" y1="0" x2="280" y2="178" fill="rgb(0, 0, 0)" stroke="rgb(60, 60, 60)" stroke-width="1px" opacity="0.25"></line></g><g><line x1="0" y1="178" x2="280" y2="178" fill="rgb(0, 0, 0)" stroke="rgb(60, 60, 60)" stroke-width="1px" opacity="0.25"></line><line x1="0" y1="155.75" x2="280" y2="155.75" fill="rgb(0, 0, 0)" stroke="rgb(60, 60, 60)" stroke-width="1px" opacity="0.25"></line><line x1="0" y1="133.5" x2="280" y2="133.5" fill="rgb(0, 0, 0)" stroke="rgb(60, 60, 60)" stroke-width="1px" opacity="0.25"></line><line x1="0" y1="111.24999999999999" x2="280" y2="111.24999999999999" fill="rgb(0, 0, 0)" stroke="rgb(60, 60, 60)" stroke-width="1px" opacity="0.25"></line><line x1="0" y1="88.99999999999999" x2="280" y2="88.99999999999999" fill="rgb(0, 0, 0)" stroke="rgb(60, 60, 60)" stroke-width="1px" opacity="0.25"></line><line x1="0" y1="66.75" x2="280" y2="66.75" fill="rgb(0, 0, 0)" stroke="rgb(60, 60, 60)" stroke-width="1px" opacity="0.25"></line><line x1="0" y1="44.5" x2="280" y2="44.5" fill="rgb(0, 0, 0)" stroke="rgb(60, 60, 60)" stroke-width="1px" opacity="0.25"></line><line x1="0" y1="22.25" x2="280" y2="22.25" fill="rgb(0, 0, 0)" stroke="rgb(60, 60, 60)" stroke-width="1px" opacity="0.25"></line><line x1="0" y1="0" x2="280" y2="0" fill="rgb(0, 0, 0)" stroke="rgb(60, 60, 60)" stroke-width="1px" opacity="0.25"></line></g></g></g><g><g><line x1="0" y1="155.75" x2="280" y2="155.75" fill="rgb(0, 0, 0)" stroke="rgb(153, 153, 153)" stroke-width="1.5px"></line></g></g><g><g><line x1="23.333333333333332" y1="0" x2="23.333333333333332" y2="178" fill="rgb(0, 0, 0)" stroke="rgb(153, 153, 153)" stroke-width="1.5px"></line></g></g><g><g><g><g><g><path stroke="rgb(0, 119, 187)" stroke-width="2px" d="M23.333333333333332,87.73916919529438L25.666666666666664,79.95534035725758L28,75.76647230656312L30.333333333333336,72.42046593252331L32.666666666666664,71.06535322370723L35,70.1707003111535L37.333333333333336,69.72120945393532L39.666666666666664,70.52439008804556L42,71.41351711528027L44.33333333333333,72.74406106395288L46.666666666666664,73.78531421016878L49,76.14532712676039L51.33333333333333,79.39962942665593L53.66666666666667,81.78177283478435L56,86.21109006745345L58.333333333333336,90.00006254622764L60.66666666666667,94.00290374150966L63,97.64075240936785L65.33333333333333,101.93578405585853L67.66666666666667,104.91573157138198L70,108.91048251703147L72.33333333333334,110.34550566545275L74.66666666666667,113.66398102823109L77,118.54321575560004L79.33333333333333,118.59200810287373L81.66666666666667,118.59249602634648L84,118.5925009055812L86.33333333333334,118.59250095437355L88.66666666666666,118.59250095486146L91,118.59250095486635L93.33333333333333,118.59250095486641L95.66666666666667,118.59250095486641L98,118.59250095486641L100.33333333333333,118.59250095486641L102.66666666666666,118.59250095486641L105,118.59250095486641L107.33333333333334,118.59250095486641L109.66666666666667,118.59250095486641L112,118.59250095486641L114.33333333333333,118.59250095486641L116.66666666666667,118.59250095486641L119,118.59250095486641L121.33333333333334,118.59250095486641L123.66666666666666,118.59250095486641L126,118.59250095486641L128.33333333333331,118.59250095486641L130.66666666666666,118.59250095486641L133,118.59250095486641L135.33333333333334,118.59250095486641L137.66666666666666,118.59250095486641L140,118.59250095486641L142.33333333333331,118.59250095486641L144.66666666666669,118.59250095486641L147,118.59250095486641L149.33333333333334,118.59250095486641L151.66666666666666,118.59250095486641L154,118.59250095486641L156.33333333333334,118.59250095486641L158.66666666666666,118.59250095486641L161,118.59250095486641L163.33333333333334,118.59250095486641L165.66666666666666,118.59250095486641L168,118.59250095486641L170.33333333333331,118.59250095486641L172.66666666666669,118.59250095486641L175,118.59250095486641L177.33333333333331,118.59250095486641L179.66666666666669,118.59250095486641L182,118.59250095486641L184.33333333333334,118.59250095486641L186.66666666666666,118.59250095486641L189,118.59250095486641L191.33333333333334,118.59250095486641L193.66666666666666,118.59250095486641L196,118.59250095486641L198.33333333333334,118.59250095486641L200.66666666666666,118.59250095486641L203,118.59250095486641L205.33333333333331,118.59250095486641L207.66666666666669,118.59250095486641L210,118.59250095486641L212.33333333333331,118.59250095486641L214.66666666666669,118.59250095486641L217,118.59250095486641L219.33333333333334,118.59250095486641L221.66666666666666,118.59250095486641L224,118.59250095486641L226.33333333333334,118.59250095486641L228.66666666666666,118.59250095486641L231,118.59250095486641L233.33333333333334,118.59250095486641L235.66666666666666,118.59250095486641L238,118.59250095486641L240.33333333333331,118.59250095486641L242.66666666666669,118.59250095486641L245,118.59250095486641L247.33333333333331,118.59250095486641L249.66666666666669,118.59250095486641L252,118.59250095486641L254.33333333333334,118.59250095486641" style="fill: none;" fill="none"></path></g><g><path stroke="rgb(255, 112, 67)" stroke-width="2px" d="M23.333333333333332,75.01196701824665L25.666666666666664,60.92827179836165L28,56.05486432134914L30.333333333333336,52.99827188300419L32.666666666666664,51.08778409969054L35,48.795688962518L37.333333333333336,46.568142605777325L39.666666666666664,43.811443658301755L42,41.23744012208411L44.33333333333333,38.5114524651857L46.666666666666664,35.56178216754327L49,32.49023983107199L51.33333333333333,29.400384278319905L53.66666666666667,26.6692381012561L56,23.343529214668393L58.333333333333336,19.362441410027003L60.66666666666667,15.067190796031554L63,10.649150212108026L65.33333333333333,6.8109632946997465L67.66666666666667,3.5083598630805284L70,1.356154644029516L72.33333333333334,0.873199367458966L74.66666666666667,1.6203306927674817L77,27.00668186457395L79.33333333333333,113.75382029784336L81.66666666666667,114.62129168217605L84,114.62996639601937L86.33333333333334,114.63005314315781L88.66666666666666,114.6300540106292L91,114.63005401930391L93.33333333333333,114.63005401939066L95.66666666666667,114.63005401939154L98,114.63005401939154L100.33333333333333,114.63005401939154L102.66666666666666,114.63005401939154L105,114.63005401939154L107.33333333333334,114.63005401939154L109.66666666666667,114.63005401939154L112,114.63005401939154L114.33333333333333,114.63005401939154L116.66666666666667,114.63005401939154L119,114.63005401939154L121.33333333333334,114.63005401939154L123.66666666666666,114.63005401939154L126,114.63005401939154L128.33333333333331,114.63005401939154L130.66666666666666,114.63005401939154L133,114.63005401939154L135.33333333333334,114.63005401939154L137.66666666666666,114.63005401939154L140,114.63005401939154L142.33333333333331,114.63005401939154L144.66666666666669,114.63005401939154L147,114.63005401939154L149.33333333333334,114.63005401939154L151.66666666666666,114.63005401939154L154,114.63005401939154L156.33333333333334,114.63005401939154L158.66666666666666,114.63005401939154L161,114.63005401939154L163.33333333333334,114.63005401939154L165.66666666666666,114.63005401939154L168,114.63005401939154L170.33333333333331,114.63005401939154L172.66666666666669,114.63005401939154L175,114.63005401939154L177.33333333333331,114.63005401939154L179.66666666666669,114.63005401939154L182,114.63005401939154L184.33333333333334,114.63005401939154L186.66666666666666,114.63005401939154L189,114.63005401939154L191.33333333333334,114.63005401939154L193.66666666666666,114.63005401939154L196,114.63005401939154L198.33333333333334,114.63005401939154L200.66666666666666,114.63005401939154L203,114.63005401939154L205.33333333333331,114.63005401939154L207.66666666666669,114.63005401939154L210,114.63005401939154L212.33333333333331,114.63005401939154L214.66666666666669,114.63005401939154L217,114.63005401939154L219.33333333333334,114.63005401939154L221.66666666666666,114.63005401939154L224,114.63005401939154L226.33333333333334,114.63005401939154L228.66666666666666,114.63005401939154L231,114.63005401939154L233.33333333333334,114.63005401939154L235.66666666666666,114.63005401939154L238,114.63005401939154L240.33333333333331,114.63005401939154L242.66666666666669,114.63005401939154L245,114.63005401939154L247.33333333333331,114.63005401939154L249.66666666666669,114.63005401939154L252,114.63005401939154L254.33333333333334,114.63005401939154" style="fill: none;" fill="none"></path></g></g></g></g><g opacity="0.2"><g><g><g><path stroke="rgb(0, 119, 187)" stroke-width="2px" d="M23.333333333333332,87.73916919529438L25.666666666666664,79.87750206887722L28,75.72416473925114L30.333333333333336,72.38666792213917L32.666666666666664,71.05166521668434L35,70.16166341304779L37.333333333333336,69.71666914224625L39.666666666666664,70.53250302374363L42,71.42249819636345L44.33333333333333,72.75750090181828L46.666666666666664,73.79583191871643L49,76.16916564106941L51.33333333333333,79.43250116705894L53.66666666666667,81.80583488941193L56,86.25583064556122L58.333333333333336,90.0383349955082L60.66666666666667,94.04333648085594L63,97.67749835550785L65.33333333333333,101.9791682139039L67.66666666666667,104.94583205133677L70,108.95083353668451L72.33333333333334,110.36000084877014L74.66666666666667,113.69750098139048L77,118.59250095486641L79.33333333333333,118.59250095486641L81.66666666666667,118.59250095486641L84,118.59250095486641L86.33333333333334,118.59250095486641L88.66666666666666,118.59250095486641L91,118.59250095486641L93.33333333333333,118.59250095486641L95.66666666666667,118.59250095486641L98,118.59250095486641L100.33333333333333,118.59250095486641L102.66666666666666,118.59250095486641L105,118.59250095486641L107.33333333333334,118.59250095486641L109.66666666666667,118.59250095486641L112,118.59250095486641L114.33333333333333,118.59250095486641L116.66666666666667,118.59250095486641L119,118.59250095486641L121.33333333333334,118.59250095486641L123.66666666666666,118.59250095486641L126,118.59250095486641L128.33333333333331,118.59250095486641L130.66666666666666,118.59250095486641L133,118.59250095486641L135.33333333333334,118.59250095486641L137.66666666666666,118.59250095486641L140,118.59250095486641L142.33333333333331,118.59250095486641L144.66666666666669,118.59250095486641L147,118.59250095486641L149.33333333333334,118.59250095486641L151.66666666666666,118.59250095486641L154,118.59250095486641L156.33333333333334,118.59250095486641L158.66666666666666,118.59250095486641L161,118.59250095486641L163.33333333333334,118.59250095486641L165.66666666666666,118.59250095486641L168,118.59250095486641L170.33333333333331,118.59250095486641L172.66666666666669,118.59250095486641L175,118.59250095486641L177.33333333333331,118.59250095486641L179.66666666666669,118.59250095486641L182,118.59250095486641L184.33333333333334,118.59250095486641L186.66666666666666,118.59250095486641L189,118.59250095486641L191.33333333333334,118.59250095486641L193.66666666666666,118.59250095486641L196,118.59250095486641L198.33333333333334,118.59250095486641L200.66666666666666,118.59250095486641L203,118.59250095486641L205.33333333333331,118.59250095486641L207.66666666666669,118.59250095486641L210,118.59250095486641L212.33333333333331,118.59250095486641L214.66666666666669,118.59250095486641L217,118.59250095486641L219.33333333333334,118.59250095486641L221.66666666666666,118.59250095486641L224,118.59250095486641L226.33333333333334,118.59250095486641L228.66666666666666,118.59250095486641L231,118.59250095486641L233.33333333333334,118.59250095486641L235.66666666666666,118.59250095486641L238,118.59250095486641L240.33333333333331,118.59250095486641L242.66666666666669,118.59250095486641L245,118.59250095486641L247.33333333333331,118.59250095486641L249.66666666666669,118.59250095486641L252,118.59250095486641L254.33333333333334,118.59250095486641" style="fill: none;" fill="none"></path></g><g><path stroke="rgb(255, 112, 67)" stroke-width="2px" d="M23.333333333333332,75.01196701824665L25.666666666666664,60.787434846162796L28,56.00564290583134L30.333333333333336,52.9673972427845L32.666666666666664,51.068486243486404L35,48.77253648638725L37.333333333333336,46.545642137527466L39.666666666666664,43.783598214387894L42,41.211440086364746L44.33333333333333,38.483917236328125L46.666666666666664,35.53198751807213L49,32.45921415090561L51.33333333333333,29.369173616170883L53.66666666666667,26.641650766134262L56,23.309936195611954L58.333333333333336,19.322228401899338L60.66666666666667,15.023804426193237L63,10.604523539543152L65.33333333333333,6.772193729877472L67.66666666666667,3.4750002324581146L70,1.3344151973724365L72.33333333333334,0.868321031332016L74.66666666666667,1.6278774738311768L77,27.263109654188156L79.33333333333333,114.63005401939154L81.66666666666667,114.63005401939154L84,114.63005401939154L86.33333333333334,114.63005401939154L88.66666666666666,114.63005401939154L91,114.63005401939154L93.33333333333333,114.63005401939154L95.66666666666667,114.63005401939154L98,114.63005401939154L100.33333333333333,114.63005401939154L102.66666666666666,114.63005401939154L105,114.63005401939154L107.33333333333334,114.63005401939154L109.66666666666667,114.63005401939154L112,114.63005401939154L114.33333333333333,114.63005401939154L116.66666666666667,114.63005401939154L119,114.63005401939154L121.33333333333334,114.63005401939154L123.66666666666666,114.63005401939154L126,114.63005401939154L128.33333333333331,114.63005401939154L130.66666666666666,114.63005401939154L133,114.63005401939154L135.33333333333334,114.63005401939154L137.66666666666666,114.63005401939154L140,114.63005401939154L142.33333333333331,114.63005401939154L144.66666666666669,114.63005401939154L147,114.63005401939154L149.33333333333334,114.63005401939154L151.66666666666666,114.63005401939154L154,114.63005401939154L156.33333333333334,114.63005401939154L158.66666666666666,114.63005401939154L161,114.63005401939154L163.33333333333334,114.63005401939154L165.66666666666666,114.63005401939154L168,114.63005401939154L170.33333333333331,114.63005401939154L172.66666666666669,114.63005401939154L175,114.63005401939154L177.33333333333331,114.63005401939154L179.66666666666669,114.63005401939154L182,114.63005401939154L184.33333333333334,114.63005401939154L186.66666666666666,114.63005401939154L189,114.63005401939154L191.33333333333334,114.63005401939154L193.66666666666666,114.63005401939154L196,114.63005401939154L198.33333333333334,114.63005401939154L200.66666666666666,114.63005401939154L203,114.63005401939154L205.33333333333331,114.63005401939154L207.66666666666669,114.63005401939154L210,114.63005401939154L212.33333333333331,114.63005401939154L214.66666666666669,114.63005401939154L217,114.63005401939154L219.33333333333334,114.63005401939154L221.66666666666666,114.63005401939154L224,114.63005401939154L226.33333333333334,114.63005401939154L228.66666666666666,114.63005401939154L231,114.63005401939154L233.33333333333334,114.63005401939154L235.66666666666666,114.63005401939154L238,114.63005401939154L240.33333333333331,114.63005401939154L242.66666666666669,114.63005401939154L245,114.63005401939154L247.33333333333331,114.63005401939154L249.66666666666669,114.63005401939154L252,114.63005401939154L254.33333333333334,114.63005401939154" style="fill: none;" fill="none"></path></g></g></g></g></g></g><g transform="translate(50, 178)" clip-path="url(#clip_1)"><clipPath id="clip_1"><rect width="280" height="22"></rect></clipPath><g><g><line x1="0" y1="0" x2="0" y2="5" style="visibility: inherit;" fill="rgb(0, 0, 0)" stroke="rgb(204, 204, 204)" stroke-width="1px"></line><line x1="23.333333333333332" y1="0" x2="23.333333333333332" y2="5" style="visibility: inherit;" fill="rgb(0, 0, 0)" stroke="rgb(204, 204, 204)" stroke-width="1px"></line><line x1="46.666666666666664" y1="0" x2="46.666666666666664" y2="5" style="visibility: inherit;" fill="rgb(0, 0, 0)" stroke="rgb(204, 204, 204)" stroke-width="1px"></line><line x1="70" y1="0" x2="70" y2="5" style="visibility: inherit;" fill="rgb(0, 0, 0)" stroke="rgb(204, 204, 204)" stroke-width="1px"></line><line x1="93.33333333333333" y1="0" x2="93.33333333333333" y2="5" style="visibility: inherit;" fill="rgb(0, 0, 0)" stroke="rgb(204, 204, 204)" stroke-width="1px"></line><line x1="116.66666666666667" y1="0" x2="116.66666666666667" y2="5" style="visibility: inherit;" fill="rgb(0, 0, 0)" stroke="rgb(204, 204, 204)" stroke-width="1px"></line><line x1="140" y1="0" x2="140" y2="5" style="visibility: inherit;" fill="rgb(0, 0, 0)" stroke="rgb(204, 204, 204)" stroke-width="1px"></line><line x1="163.33333333333334" y1="0" x2="163.33333333333334" y2="5" style="visibility: inherit;" fill="rgb(0, 0, 0)" stroke="rgb(204, 204, 204)" stroke-width="1px"></line><line x1="186.66666666666666" y1="0" x2="186.66666666666666" y2="5" style="visibility: inherit;" fill="rgb(0, 0, 0)" stroke="rgb(204, 204, 204)" stroke-width="1px"></line><line x1="210" y1="0" x2="210" y2="5" style="visibility: inherit;" fill="rgb(0, 0, 0)" stroke="rgb(204, 204, 204)" stroke-width="1px"></line><line x1="233.33333333333334" y1="0" x2="233.33333333333334" y2="5" style="visibility: inherit;" fill="rgb(0, 0, 0)" stroke="rgb(204, 204, 204)" stroke-width="1px"></line><line x1="256.66666666666663" y1="0" x2="256.66666666666663" y2="5" style="visibility: inherit;" fill="rgb(0, 0, 0)" stroke="rgb(204, 204, 204)" stroke-width="1px"></line><line x1="280" y1="0" x2="280" y2="5" style="visibility: inherit;" fill="rgb(0, 0, 0)" stroke="rgb(204, 204, 204)" stroke-width="1px"></line></g><g transform="translate(0, 8)"><text x="0" y="0" dx="0em" dy="0.95em" style="text-anchor: middle; visibility: hidden; font-family: &quot;Helvetica Neue&quot;, sans-serif; font-size: 12px; font-weight: 200;" fill="rgb(50, 49, 63)" stroke="none" stroke-width="1px">-10</text><text x="23.333333333333332" y="0" dx="0em" dy="0.95em" style="text-anchor: middle; visibility: inherit; font-family: &quot;Helvetica Neue&quot;, sans-serif; font-size: 12px; font-weight: 200;" fill="rgb(50, 49, 63)" stroke="none" stroke-width="1px">0</text><text x="46.666666666666664" y="0" dx="0em" dy="0.95em" style="text-anchor: middle; visibility: inherit; font-family: &quot;Helvetica Neue&quot;, sans-serif; font-size: 12px; font-weight: 200;" fill="rgb(50, 49, 63)" stroke="none" stroke-width="1px">10</text><text x="70" y="0" dx="0em" dy="0.95em" style="text-anchor: middle; visibility: inherit; font-family: &quot;Helvetica Neue&quot;, sans-serif; font-size: 12px; font-weight: 200;" fill="rgb(50, 49, 63)" stroke="none" stroke-width="1px">20</text><text x="93.33333333333333" y="0" dx="0em" dy="0.95em" style="text-anchor: middle; visibility: inherit; font-family: &quot;Helvetica Neue&quot;, sans-serif; font-size: 12px; font-weight: 200;" fill="rgb(50, 49, 63)" stroke="none" stroke-width="1px">30</text><text x="116.66666666666667" y="0" dx="0em" dy="0.95em" style="text-anchor: middle; visibility: inherit; font-family: &quot;Helvetica Neue&quot;, sans-serif; font-size: 12px; font-weight: 200;" fill="rgb(50, 49, 63)" stroke="none" stroke-width="1px">40</text><text x="140" y="0" dx="0em" dy="0.95em" style="text-anchor: middle; visibility: inherit; font-family: &quot;Helvetica Neue&quot;, sans-serif; font-size: 12px; font-weight: 200;" fill="rgb(50, 49, 63)" stroke="none" stroke-width="1px">50</text><text x="163.33333333333334" y="0" dx="0em" dy="0.95em" style="text-anchor: middle; visibility: inherit; font-family: &quot;Helvetica Neue&quot;, sans-serif; font-size: 12px; font-weight: 200;" fill="rgb(50, 49, 63)" stroke="none" stroke-width="1px">60</text><text x="186.66666666666666" y="0" dx="0em" dy="0.95em" style="text-anchor: middle; visibility: inherit; font-family: &quot;Helvetica Neue&quot;, sans-serif; font-size: 12px; font-weight: 200;" fill="rgb(50, 49, 63)" stroke="none" stroke-width="1px">70</text><text x="210" y="0" dx="0em" dy="0.95em" style="text-anchor: middle; visibility: inherit; font-family: &quot;Helvetica Neue&quot;, sans-serif; font-size: 12px; font-weight: 200;" fill="rgb(50, 49, 63)" stroke="none" stroke-width="1px">80</text><text x="233.33333333333334" y="0" dx="0em" dy="0.95em" style="text-anchor: middle; visibility: inherit; font-family: &quot;Helvetica Neue&quot;, sans-serif; font-size: 12px; font-weight: 200;" fill="rgb(50, 49, 63)" stroke="none" stroke-width="1px">90</text><text x="256.66666666666663" y="0" dx="0em" dy="0.95em" style="text-anchor: middle; visibility: inherit; font-family: &quot;Helvetica Neue&quot;, sans-serif; font-size: 12px; font-weight: 200;" fill="rgb(50, 49, 63)" stroke="none" stroke-width="1px">100</text><text x="280" y="0" dx="0em" dy="0.95em" style="text-anchor: middle; visibility: hidden; font-family: &quot;Helvetica Neue&quot;, sans-serif; font-size: 12px; font-weight: 200;" fill="rgb(50, 49, 63)" stroke="none" stroke-width="1px">110</text></g><line x1="0" y1="0" x2="280" y2="0" fill="rgb(0, 0, 0)" stroke="rgb(204, 204, 204)" stroke-width="1px"></line></g></g></g></g></svg>