<svg viewBox="0 0 1073 400" xmlns="http://www.w3.org/2000/svg"><g><g><g><g><g><line x1="50" y1="356.48976303792546" x2="45" y2="356.48976303792546" style="visibility: inherit;" fill="rgb(0, 0, 0)" stroke="rgb(204, 204, 204)" stroke-width="1px"></line><line x1="50" y1="320.4676525156166" x2="45" y2="320.4676525156166" style="visibility: inherit;" fill="rgb(0, 0, 0)" stroke="rgb(204, 204, 204)" stroke-width="1px"></line><line x1="50" y1="284.44554199330776" x2="45" y2="284.44554199330776" style="visibility: inherit;" fill="rgb(0, 0, 0)" stroke="rgb(204, 204, 204)" stroke-width="1px"></line><line x1="50" y1="248.42343147099905" x2="45" y2="248.42343147099905" style="visibility: inherit;" fill="rgb(0, 0, 0)" stroke="rgb(204, 204, 204)" stroke-width="1px"></line><line x1="50" y1="212.40132094869017" x2="45" y2="212.40132094869017" style="visibility: inherit;" fill="rgb(0, 0, 0)" stroke="rgb(204, 204, 204)" stroke-width="1px"></line><line x1="50" y1="176.37921042638132" x2="45" y2="176.37921042638132" style="visibility: inherit;" fill="rgb(0, 0, 0)" stroke="rgb(204, 204, 204)" stroke-width="1px"></line><line x1="50" y1="140.35709990407244" x2="45" y2="140.35709990407244" style="visibility: inherit;" fill="rgb(0, 0, 0)" stroke="rgb(204, 204, 204)" stroke-width="1px"></line><line x1="50" y1="104.33498938176359" x2="45" y2="104.33498938176359" style="visibility: inherit;" fill="rgb(0, 0, 0)" stroke="rgb(204, 204, 204)" stroke-width="1px"></line><line x1="50" y1="68.31287885945488" x2="45" y2="68.31287885945488" style="visibility: inherit;" fill="rgb(0, 0, 0)" stroke="rgb(204, 204, 204)" stroke-width="1px"></line><line x1="50" y1="32.29076833714606" x2="45" y2="32.29076833714606" style="visibility: inherit;" fill="rgb(0, 0, 0)" stroke="rgb(204, 204, 204)" stroke-width="1px"></line></g><g transform="translate(40, 0)"><text x="0" y="356.48976303792546" dx="0em" dy="0.3em" style="text-anchor: end; visibility: inherit; font-family: &quot;Helvetica Neue&quot;, sans-serif; font-size: 12px; font-weight: 200;" fill="rgb(50, 49, 63)" stroke="none" stroke-width="1px">1</text><text x="0" y="320.4676525156166" dx="0em" dy="0.3em" style="text-anchor: end; visibility: inherit; font-family: &quot;Helvetica Neue&quot;, sans-serif; font-size: 12px; font-weight: 200;" fill="rgb(50, 49, 63)" stroke="none" stroke-width="1px">1.05</text><text x="0" y="284.44554199330776" dx="0em" dy="0.3em" style="text-anchor: end; visibility: inherit; font-family: &quot;Helvetica Neue&quot;, sans-serif; font-size: 12px; font-weight: 200;" fill="rgb(50, 49, 63)" stroke="none" stroke-width="1px">1.1</text><text x="0" y="248.42343147099905" dx="0em" dy="0.3em" style="text-anchor: end; visibility: inherit; font-family: &quot;Helvetica Neue&quot;, sans-serif; font-size: 12px; font-weight: 200;" fill="rgb(50, 49, 63)" stroke="none" stroke-width="1px">1.15</text><text x="0" y="212.40132094869017" dx="0em" dy="0.3em" style="text-anchor: end; visibility: inherit; font-family: &quot;Helvetica Neue&quot;, sans-serif; font-size: 12px; font-weight: 200;" fill="rgb(50, 49, 63)" stroke="none" stroke-width="1px">1.2</text><text x="0" y="176.37921042638132" dx="0em" dy="0.3em" style="text-anchor: end; visibility: inherit; font-family: &quot;Helvetica Neue&quot;, sans-serif; font-size: 12px; font-weight: 200;" fill="rgb(50, 49, 63)" stroke="none" stroke-width="1px">1.25</text><text x="0" y="140.35709990407244" dx="0em" dy="0.3em" style="text-anchor: end; visibility: inherit; font-family: &quot;Helvetica Neue&quot;, sans-serif; font-size: 12px; font-weight: 200;" fill="rgb(50, 49, 63)" stroke="none" stroke-width="1px">1.3</text><text x="0" y="104.33498938176359" dx="0em" dy="0.3em" style="text-anchor: end; visibility: inherit; font-family: &quot;Helvetica Neue&quot;, sans-serif; font-size: 12px; font-weight: 200;" fill="rgb(50, 49, 63)" stroke="none" stroke-width="1px">1.35</text><text x="0" y="68.31287885945488" dx="0em" dy="0.3em" style="text-anchor: end; visibility: inherit; font-family: &quot;Helvetica Neue&quot;, sans-serif; font-size: 12px; font-weight: 200;" fill="rgb(50, 49, 63)" stroke="none" stroke-width="1px">1.4</text><text x="0" y="32.29076833714606" dx="0em" dy="0.3em" style="text-anchor: end; visibility: inherit; font-family: &quot;Helvetica Neue&quot;, sans-serif; font-size: 12px; font-weight: 200;" fill="rgb(50, 49, 63)" stroke="none" stroke-width="1px">1.45</text></g><line x1="50" y1="0" x2="50" y2="378" fill="rgb(0, 0, 0)" stroke="rgb(204, 204, 204)" stroke-width="1px"></line></g></g><g transform="translate(50, 0)" clip-path="url(#clip_0)"><clipPath id="clip_0"><rect width="517" height="378"></rect></clipPath><g><g><g><line x1="27.063052607685847" y1="0" x2="27.063052607685847" y2="378" fill="rgb(0, 0, 0)" stroke="rgb(60, 60, 60)" stroke-width="1px" opacity="0.25"></line><line x1="72.22569426120674" y1="0" x2="72.22569426120674" y2="378" fill="rgb(0, 0, 0)" stroke="rgb(60, 60, 60)" stroke-width="1px" opacity="0.25"></line><line x1="117.38833591472762" y1="0" x2="117.38833591472762" y2="378" fill="rgb(0, 0, 0)" stroke="rgb(60, 60, 60)" stroke-width="1px" opacity="0.25"></line><line x1="162.5509775682485" y1="0" x2="162.5509775682485" y2="378" fill="rgb(0, 0, 0)" stroke="rgb(60, 60, 60)" stroke-width="1px" opacity="0.25"></line><line x1="207.7136192217694" y1="0" x2="207.7136192217694" y2="378" fill="rgb(0, 0, 0)" stroke="rgb(60, 60, 60)" stroke-width="1px" opacity="0.25"></line><line x1="252.87626087529028" y1="0" x2="252.87626087529028" y2="378" fill="rgb(0, 0, 0)" stroke="rgb(60, 60, 60)" stroke-width="1px" opacity="0.25"></line><line x1="298.0389025288112" y1="0" x2="298.0389025288112" y2="378" fill="rgb(0, 0, 0)" stroke="rgb(60, 60, 60)" stroke-width="1px" opacity="0.25"></line><line x1="343.2015441823321" y1="0" x2="343.2015441823321" y2="378" fill="rgb(0, 0, 0)" stroke="rgb(60, 60, 60)" stroke-width="1px" opacity="0.25"></line><line x1="388.36418583585294" y1="0" x2="388.36418583585294" y2="378" fill="rgb(0, 0, 0)" stroke="rgb(60, 60, 60)" stroke-width="1px" opacity="0.25"></line><line x1="433.52682748937383" y1="0" x2="433.52682748937383" y2="378" fill="rgb(0, 0, 0)" stroke="rgb(60, 60, 60)" stroke-width="1px" opacity="0.25"></line><line x1="478.6894691428948" y1="0" x2="478.6894691428948" y2="378" fill="rgb(0, 0, 0)" stroke="rgb(60, 60, 60)" stroke-width="1px" opacity="0.25"></line></g><g><line x1="0" y1="356.48976303792546" x2="517" y2="356.48976303792546" fill="rgb(0, 0, 0)" stroke="rgb(60, 60, 60)" stroke-width="1px" opacity="0.25"></line><line x1="0" y1="320.4676525156166" x2="517" y2="320.4676525156166" fill="rgb(0, 0, 0)" stroke="rgb(60, 60, 60)" stroke-width="1px" opacity="0.25"></line><line x1="0" y1="284.44554199330776" x2="517" y2="284.44554199330776" fill="rgb(0, 0, 0)" stroke="rgb(60, 60, 60)" stroke-width="1px" opacity="0.25"></line><line x1="0" y1="248.42343147099905" x2="517" y2="248.42343147099905" fill="rgb(0, 0, 0)" stroke="rgb(60, 60, 60)" stroke-width="1px" opacity="0.25"></line><line x1="0" y1="212.40132094869017" x2="517" y2="212.40132094869017" fill="rgb(0, 0, 0)" stroke="rgb(60, 60, 60)" stroke-width="1px" opacity="0.25"></line><line x1="0" y1="176.37921042638132" x2="517" y2="176.37921042638132" fill="rgb(0, 0, 0)" stroke="rgb(60, 60, 60)" stroke-width="1px" opacity="0.25"></line><line x1="0" y1="140.35709990407244" x2="517" y2="140.35709990407244" fill="rgb(0, 0, 0)" stroke="rgb(60, 60, 60)" stroke-width="1px" opacity="0.25"></line><line x1="0" y1="104.33498938176359" x2="517" y2="104.33498938176359" fill="rgb(0, 0, 0)" stroke="rgb(60, 60, 60)" stroke-width="1px" opacity="0.25"></line><line x1="0" y1="68.31287885945488" x2="517" y2="68.31287885945488" fill="rgb(0, 0, 0)" stroke="rgb(60, 60, 60)" stroke-width="1px" opacity="0.25"></line><line x1="0" y1="32.29076833714606" x2="517" y2="32.29076833714606" fill="rgb(0, 0, 0)" stroke="rgb(60, 60, 60)" stroke-width="1px" opacity="0.25"></line></g></g></g><g><g><line x1="0" y1="1076.931973484102" x2="517" y2="1076.931973484102" fill="rgb(0, 0, 0)" stroke="rgb(153, 153, 153)" stroke-width="1.5px"></line></g></g><g><g><line x1="27.063052607685847" y1="0" x2="27.063052607685847" y2="378" fill="rgb(0, 0, 0)" stroke="rgb(153, 153, 153)" stroke-width="1.5px"></line></g></g><g><g><g><g><g><path stroke="rgb(0, 119, 187)" stroke-width="2px" d="M42.86997718641816,-9.882727166443544L45.1281092690942,7.616299774130312L47.38624135177025,22.992242509100322L49.644373434446294,36.58608729996746L51.902505517122336,48.67607615883168L54.160637599798385,59.49093594696484L56.41876968247443,69.22005285762276L58.67690176515047,78.02093062708445L60.93503384782652,86.02465759865976L63.19316593050256,93.34098691726848L65.45129801317862,100.06172260287167L67.70943009585466,106.26402996100444L69.9675621785307,112.01278201900476L72.22569426120674,117.36295240914677L74.48382634388278,122.36099247450912L76.74195842655882,127.04646908050202L79.00009050923488,131.45314338933602L81.25822259191092,135.60995789808308L83.51635467458696,139.54190144349988L85.774486757263,143.2705270877186L88.03261883993905,146.81460577084508L90.29075092261509,150.19044945721842L92.54888300529113,153.41248272299705L94.80701508796719,156.4933107773518L97.06514717064323,159.44410375070757L99.32327925331927,162.2748615883342L101.58141133599531,164.99433249459423L103.83954341867135,167.61051364293957L106.0976755013474,170.13053935567723L108.35580758402344,172.56078577531852L110.6139396666995,174.90703672557927L112.87207174937554,177.1745488735364L115.13020383205158,179.36812517966695L117.38833591472762,181.4920215540727L119.64646799740366,183.5502687369895L121.90460008007972,185.54648753999916L124.16273216275577,187.48398411085898L126.42086424543182,189.3658070923609L128.67899632810784,191.19478191762508L130.93712841078388,192.9735313872634L133.19526049345993,194.70441930894577L135.45339257613597,196.38972280130713L137.711524658812,198.03149520275574L139.96965674148805,199.63168993692804L142.2277888241641,201.19206306515213L144.48592090684014,202.71425223137132L146.7440529895162,204.1998583824605L149.00218507219225,205.6502886802454L151.2603171548683,207.0668340155222L153.51844923754433,208.45071551647035L155.77658132022037,209.80331857386756L158.03471340289641,211.12564618898895L160.29284548557246,212.41867804957755L162.5509775682485,213.68351726870353L164.80910965092454,214.9210318343785L167.06724173360058,216.13191430621796L169.32537381627662,217.31716422713865L171.58350589895267,218.47738132289066L173.8416379816287,219.6133033159019L176.09977006430478,220.7255446064372L178.35790214698082,221.81481736827195L180.61603422965686,222.88178937920273L182.8741663123329,223.9268956592687L185.13229839500895,224.95063769402554L187.390430477685,225.95362555506057L189.64856256036103,226.9362596386881L191.90669464303707,227.89902065622843L194.1648267257131,228.84236880128117L196.42295880838915,229.76661454336826L198.6810908910652,230.67215028437252L200.93922297374124,231.55938323223188L203.19735505641728,232.42879818524005L205.45548713909335,233.28068602237366L207.7136192217694,234.11546174455006L209.97175130444543,234.93337435231956L212.22988338712148,235.7344358325659L214.48801546979752,236.51903126439714L216.74614755247356,237.28739169527807L219.0042796351496,238.03972446041107L221.26241171782564,238.77629137436378L223.52054380050168,239.4971808191538L225.77867588317773,240.20258323743803L228.03680796585377,240.8927159548953L230.2949400485298,241.56784678038002L232.55307213120585,242.22806769248103L234.81120421388192,242.8737430586066L237.06933629655796,243.50488537903163L239.327468379234,244.12181133417593L241.58560046191005,244.72460787220643L243.84373254458612,245.313086688492L246.10186462726216,245.887203506977L248.3599967099382,246.44751576917614L250.61812879261424,246.99401440638127L252.87626087529028,247.52700315762277L255.13439295796633,248.0463207327024L257.3925250406424,248.55228259784073L259.6506571233184,249.04490626596188L261.9087892059944,249.52409918473555L264.1669212886705,249.98994323621008L266.4250533713465,250.44241884289107L268.6831854540226,250.8815829650054L270.9413175366986,251.30712624507265L273.19944961937466,251.71930966230576L275.4575817020507,252.1183241575945L277.71571378472674,252.5039751152175L279.9738458674028,252.87604270565737L282.2319779500789,253.23473856482013L284.4901100327549,253.58015532088731L286.74824211543097,253.91258902429968L289.006374198107,254.23187377170512L291.26450628078305,254.53766954756094L293.5226383634591,254.82987540262667L295.78077044613514,255.10860253416593L298.0389025288112,255.3735054201976L300.2970346114872,255.6245828677027L302.5551666941633,255.86183416086965L304.81329877683936,256.0849840433185L307.0714308595154,256.29448572173067L309.32956294219144,256.4904049999454L311.58769502486746,256.67278136026596L313.8458271075435,256.84115754501187L316.10395919021954,256.9952591995745L318.3620912728956,257.1350934779967L320.6202233555716,257.2602524323653L322.8783554382477,257.37073176746316L325.1364875209237,257.4669754998613L327.3946196035998,257.5492156861409L329.6527516862758,257.61704190646435L331.91088376895186,257.669967435398L334.1690158516279,257.70756282423486L336.42714793430395,257.7299482907288L338.68528001698,257.73712725880904L340.9434120996561,257.72913613619426L343.2015441823321,257.70630594777083L345.45967626500817,257.6679764744296L347.7178083476842,257.6135454645354L349.97594043036025,257.5431325141699L352.23407251303627,257.45643149400405L354.49220459571234,257.35346484661045L356.75033667838835,257.23397121063954L359.0084687610644,257.0978624760046L361.26660084374043,256.94494836320746L363.5247329264165,256.77459940412456L365.7828650090925,256.58640356452037L368.0409970917686,256.38031974402304L370.2991291744446,256.1563919891329L372.5572612571207,255.9141657806871L374.8153933397967,255.65360888071996L377.07352542247276,255.37425535275025L379.33165750514877,255.07599740169752L381.58978958782484,254.7581519900043L383.84792167050085,254.41996576152005L386.1060537531769,254.0611241160005L388.36418583585294,253.68205665380881L390.622317918529,253.28216230112182L392.880450001205,252.86097735356094L395.1385820838811,252.41698686748038L397.39671416655716,251.95027812418L399.65484624923323,251.46076607899298L401.91297833190924,250.94836535175764L404.1711104145853,250.4130590677388L406.4292424972613,249.85449356847897L408.6873745799374,249.27166653158613L410.9455066626134,248.66428574387967L413.2036387452895,248.0314888102188L415.4617708279655,247.3721055796482L417.71990291064157,246.68543396159455L419.9780349933176,245.97170541558472L422.23616707599365,245.23016562993251L424.49429915866966,244.46067119788123L426.75243124134573,243.66334219554597L429.01056332402175,242.83801019506498L431.2686954066978,241.98354353887203L433.52682748937383,241.09905711225773L435.7849595720499,240.18336713252563L438.0430916547259,239.23566026997284L440.301223737402,238.25458969273691L442.559355820078,237.23989695548644L444.81748790275407,236.1900872099192L447.0756199854301,235.10464143403163L449.33375206810615,233.98287032764372L451.59188415078216,232.8235701833301L453.85001623345823,231.62560653629592L456.10814831613436,230.38754293370852L458.3662803988104,229.10892974420773L460.62441248148644,227.78908494863796L462.88254456416246,226.42708403508158L465.14067664683853,225.02171958251688L467.39880872951454,223.5715113643752L469.6569408121906,222.07502159092925L471.9150728948666,220.53004780723901L474.1732049775427,218.93519983361745L476.4313370602187,217.28840684123352" style="fill: none;" fill="none"></path></g><g><path stroke="rgb(255, 112, 67)" stroke-width="2px" d="M38.35371302106608,-22.48009552161477L40.61184510374212,7.847351832476306L42.86997718641816,33.60047102535515L45.1281092690942,55.67728599675473L47.38624135177025,74.76704366892653L49.644373434446294,91.4061320664382L51.902505517122336,106.01710676195637L54.160637599798385,118.93706051037901L56.41876968247443,130.43777964631872L58.67690176515047,140.74017852412783L60.93503384782652,150.02486831502776L63.19316593050256,158.44076647790766L65.45129801317862,166.1107869510064L67.70943009585466,173.13714304282763L69.9675621785307,179.60510882091478L72.22569426120674,185.58597577379376L74.48382634388278,191.13982801637962L76.74195842655882,196.31729490895907L79.00009050923488,201.16131578707996L81.25822259191092,205.70857225390924L83.51635467458696,209.99020775571793L85.774486757263,214.03325428522484L88.03261883993905,217.86107545694767L90.29075092261509,221.49376938153645L92.54888300529113,224.94909724573384L94.80701508796719,228.2424563355138L97.06514717064323,231.3874134389443L99.32327925331927,234.39599049815996L101.58141133599531,237.27887033361148L103.83954341867135,240.04555442058322L106.0976755013474,242.70449190204565L108.35580758402344,245.2632944061867L110.6139396666995,247.72889928823568L112.87207174937554,250.10746145421876L115.13020383205158,252.4044945747209L117.38833591472762,254.62512757957143L119.64646799740366,256.7740524342675L121.90460008007972,258.8554240989828L124.16273216275577,260.8731440375155L126.42086424543182,262.8307554957256L128.67899632810784,264.731449375295L130.93712841078388,266.57827387814115L133.19526049345993,268.3739167594405L135.45339257613597,270.12095256641527L137.711524658812,271.82178486143505L139.96965674148805,273.47854284915104L142.2277888241641,275.0932598263082L144.48592090684014,276.66777413146144L146.7440529895162,278.2039101883378L149.00218507219225,279.70320924487396L151.2603171548683,281.1672487637028L153.51844923754433,282.5974218161052L155.77658132022037,283.99507954527394L158.03471340289641,285.3612387572943L160.29284548557246,286.69723095641183L162.5509775682485,288.004095518705L164.80910965092454,289.28276525007595L167.06724173360058,290.5342464277664L169.32537381627662,291.7594519983769L171.58350589895267,292.95930761684514L173.8416379816287,294.1344717362185L176.09977006430478,295.2857516686653L178.35790214698082,296.4138379216562L180.61603422965686,297.51931656648185L182.8741663123329,298.60288277953237L185.13229839500895,299.665022373366L187.390430477685,300.7063016624099L189.64856256036103,301.7272665554905L191.90669464303707,302.7283133046269L194.1648267257131,303.7100919013701L196.42295880838915,304.67282057384216L198.6810908910652,305.61707685261814L200.93922297374124,306.54310419595777L203.19735505641728,307.4514609191565L205.45548713909335,308.3423102445836L207.7136192217694,309.2162310527232L209.97175130444543,310.0733989050579L212.22988338712148,310.9141252586468L214.48801546979752,311.738631341087L216.74614755247356,312.5472216557449L219.0042796351496,313.3400445512789L221.26241171782564,314.1172920969688L223.52054380050168,314.879216947829L225.77867588317773,315.6261081103146L228.03680796585377,316.3581733416603L230.2949400485298,317.0756060029303L232.55307213120585,317.7784877574013L234.81120421388192,318.46703936984756L237.06933629655796,319.14139329913365L239.327468379234,319.8017320806632L241.58560046191005,320.4482682957633L243.84373254458612,321.08099207978364L246.10186462726216,321.70010363410364L248.3599967099382,322.3057230795513L250.61812879261424,322.89805990206963L252.87626087529028,323.47710237977805L255.13439295796633,324.0428091261867L257.3925250406424,324.59525836948626L259.6506571233184,325.13460010667626L261.9087892059944,325.66082127587157L264.1669212886705,326.17394839330234L266.4250533713465,326.67413478215366L268.6831854540226,327.16154114305965L270.9413175366986,327.6361951896775L273.19944961937466,328.09801049011656L275.4575817020507,328.5468664785195L277.71571378472674,328.98303434898776L279.9738458674028,329.4064706978128L282.2319779500789,329.8171838361309L284.4901100327549,330.21524745734706L286.74824211543097,330.6005340106966L289.006374198107,330.9732074392513L291.26450628078305,331.33326304877016L293.5226383634591,331.6803544890919L295.78077044613514,332.0144800702895L298.0389025288112,332.3355013649601L300.2970346114872,332.64371320364023L302.5551666941633,332.9389489510355L304.81329877683936,333.2211086259691L307.0714308595154,333.49030400654317L309.32956294219144,333.7463960394491L311.58769502486746,333.98926693934015L313.8458271075435,334.2187773282853L316.10395919021954,334.4348435795255L318.3620912728956,334.637106336751L320.6202233555716,334.82569351979197L322.8783554382477,335.00057882046184L325.1364875209237,335.16181516057185L327.3946196035998,335.309228173039L329.6527516862758,335.44254147080534L331.91088376895186,335.5616922817208L334.1690158516279,335.6664711756876L336.42714793430395,335.7568555547315L338.68528001698,335.832591386537L340.9434120996561,335.89356060507595L343.2015441823321,335.93965801737033L345.45967626500817,335.97075180090974L347.7178083476842,335.9866941554648L349.97594043036025,335.9872933408129L352.23407251303627,335.9721594859276L354.49220459571234,335.94123043500105L356.75033667838835,335.89440018782545L359.0084687610644,335.83129596402125L361.26660084374043,335.7515223285528L363.5247329264165,335.6548420203985L365.7828650090925,335.54107832958374L368.0409970917686,335.40988475659276L370.2991291744446,335.26095034163075L372.5572612571207,335.09419156890596L374.8153933397967,334.9091804419653L377.07352542247276,334.7056601629371L379.33165750514877,334.4835453598214L381.58978958782484,334.24230386235564L383.84792167050085,333.98182248855187L386.1060537531769,333.7014493220697L388.36418583585294,333.4008962731898L390.622317918529,333.07964695446435L392.880450001205,332.73749459350955L395.1385820838811,332.37400594664024L397.39671416655716,331.9885775340293L399.65484624923323,331.5811220946733L401.91297833190924,331.1511406782692L404.1711104145853,330.6980590877421L406.4292424972613,330.2215671582086L408.6873745799374,329.7211352571224L410.9455066626134,329.19620513142434L413.2036387452895,328.6462013557477L415.4617708279655,328.07029772780936L417.71990291064157,327.46810158632456L419.9780349933176,326.8392399210757L422.23616707599365,326.1829736255081L424.49429915866966,325.4985844087958L426.75243124134573,324.78571000316623L429.01056332402175,324.04344598072385L431.2686954066978,323.27100921119944L433.52682748937383,322.4672771025607L435.7849595720499,321.6314730395033L438.0430916547259,320.7630966994833L440.301223737402,319.8612982351878L442.559355820078,318.92515549789L444.81748790275407,317.95404649163044L447.0756199854301,316.94687659823904L449.33375206810615,315.9027829266441L451.59188415078216,314.8210759753946L453.85001623345823,313.700586269664L456.10814831613436,312.5404747111097L458.3662803988104,311.33931029996256L460.62441248148644,310.0951351287888L462.88254456416246,308.80639656615006L465.14067664683853,307.4723691533536L467.39880872951454,306.0919305479507L469.6569408121906,304.6636172171548L471.9150728948666,303.18596703414653L474.1732049775427,301.65769048249444L476.4313370602187,300.0774641985539" style="fill: none;" fill="none"></path></g></g></g></g><g opacity="0.2"><g><g><g><path stroke="rgb(0, 119, 187)" stroke-width="2px" d="M38.35371302106608,-15.86288831042998L40.61184510374212,3.140274857856582L42.86997718641816,19.343896703683754L45.1281092690942,33.42396550048386L47.38624135177025,45.82372549666064L49.644373434446294,56.853559314521874L51.902505517122336,66.74526626165175L54.160637599798385,75.67791323553541L56.41876968247443,83.79466787075705L58.67690176515047,91.21190217983121L60.93503384782652,98.0246032076588L63.19316593050256,104.31238486981255L65.45129801317862,110.14111973721378L67.70943009585466,115.56654613910382L69.9675621785307,120.63538464729652L72.22569426120674,125.38791457830052L74.48382634388278,129.85788810991536L76.74195842655882,134.07459148292867L79.00009050923488,138.0631026513288L81.25822259191092,141.84515011634545L83.51635467458696,145.43979999368204L85.774486757263,148.86345601351587L88.03261883993905,152.13071835453883L90.29075092261509,155.25421187714915L92.54888300529113,158.24553084089618L94.80701508796719,161.11455183724803L97.06514717064323,163.87029262363197L99.32327925331927,166.52099800683868L101.58141133599531,169.0735386591937L103.83954341867135,171.5347852530227L106.0976755013474,173.91057785980237L108.35580758402344,176.2061553671809L110.6139396666995,178.42641312919034L112.87207174937554,180.57581708284232L115.13020383205158,182.65848963153215L117.38833591472762,184.6778661114226L119.64646799740366,186.6376395088887L121.90460008007972,188.54081574307287L124.16273216275577,190.39022896630942L126.42086424543182,192.18854156412453L128.67899632810784,193.93824415523616L130.93712841078388,195.64165559155427L133.19526049345993,197.3007511913724L135.45339257613597,198.91767803979235L137.711524658812,200.49415380489543L139.96965674148805,202.03198203816717L142.2277888241641,203.53262275747676L144.48592090684014,204.99753598069336L146.7440529895162,206.4282676090902L149.00218507219225,207.8259341269202L151.2603171548683,209.19165201843632L153.51844923754433,210.5265377678914L155.77658132022037,211.8322231599628L158.03471340289641,213.10913761167086L160.29284548557246,214.35822584046034L162.5509775682485,215.58077609739226L164.80910965092454,216.77730368289107L167.06724173360058,217.94823801397715L169.32537381627662,219.09503910851961L171.58350589895267,220.2177069665185L173.8416379816287,221.3171863054186L176.09977006430478,222.39390654224022L178.35790214698082,223.44872651102406L180.61603422965686,224.48224739559865L182.8741663123329,225.494555079368L185.13229839500895,226.48625074616064L187.390430477685,227.45810734661316L189.64856256036103,228.41021076412966L191.90669464303707,229.34316218253863L194.1648267257131,230.2573910188604L196.42295880838915,231.15298315649906L198.6810908910652,232.03045389587902L200.93922297374124,232.8902326540206L203.19735505641728,233.73292061475235L205.45548713909335,234.55851777807422L207.7136192217694,235.3676253278147L209.97175130444543,236.1602432639738L212.22988338712148,236.93602805293526L214.48801546979752,237.6959244121438L216.74614755247356,238.43993234159947L219.0042796351496,239.16822360811037L221.26241171782564,239.8811417452928L223.52054380050168,240.57851498633866L225.77867588317773,241.26068686486414L228.03680796585377,241.9279150310815L230.2949400485298,242.58054301860705L232.55307213120585,243.21839906063258L234.81120421388192,243.84225610779475L237.06933629655796,244.45159885966913L239.327468379234,245.0472002668924L241.58560046191005,245.62880267925232L243.84373254458612,246.19580491292035L246.10186462726216,246.7483787347047L248.3599967099382,247.28798416247452L250.61812879261424,247.81376236218912L252.87626087529028,248.32648628448513L255.13439295796633,248.82529709532184L257.3925250406424,249.3112253955481L259.6506571233184,249.78384176814356L261.9087892059944,250.24288856289604L264.1669212886705,250.68870931342173L266.4250533713465,251.12113225291262L268.6831854540226,251.54032914817674L270.9413175366986,251.9454411651734L273.19944961937466,252.3375847881556L275.4575817020507,252.7168459005273L277.71571378472674,253.08245155165196L279.9738458674028,253.4341440913173L282.2319779500789,253.77278235356405L284.4901100327549,254.09828045498816L286.74824211543097,254.4112395794181L289.006374198107,254.71080089281315L291.26450628078305,254.99636321134486L293.5226383634591,255.2681841852254L295.78077044613514,255.52669323147512L298.0389025288112,255.77085974924523L300.2970346114872,256.0011990389601L302.5551666941633,256.2177111006198L304.81329877683936,256.4197088669917L307.0714308595154,256.60873823934907L309.32956294219144,256.78428391726754L311.58769502486746,256.946345900747L313.8458271075435,257.0937218221306L316.10395919021954,257.2264116814182L318.3620912728956,257.34484489563033L320.6202233555716,257.447990863918L322.8783554382477,257.5364507701098L325.1364875209237,257.6113410984586L327.3946196035998,257.6725759655602L329.6527516862758,257.7187812369497L331.91088376895186,257.74935572879855L334.1690158516279,257.7639559074904L336.42714793430395,257.76352649047004L338.68528001698,257.74789571092936L340.9434120996561,257.7171494522724L343.2015441823321,257.67206066513586L345.45967626500817,257.61048226441784L347.7178083476842,257.5318989496941L349.97594043036025,257.43751308862153L352.23407251303627,257.32637996375536L354.49220459571234,257.19901487552L356.75033667838835,257.05473075668294L359.0084687610644,256.8936993740523L361.26660084374043,256.71557719401176L363.5247329264165,256.51907596550035L365.7828650090925,256.3041098051139L368.0409970917686,256.0711940132769L370.2991291744446,255.82050035679754L372.5572612571207,255.55082646801873L374.8153933397967,255.262773530769L377.07352542247276,254.95522506079547L379.33165750514877,254.62861047511848L381.58978958782484,254.28138387246474L383.84792167050085,253.91268641879358L386.1060537531769,253.5228616477213L388.36418583585294,253.11345546052112L390.622317918529,252.68232077209132L392.880450001205,252.22919993221967L395.1385820838811,251.75100113835967L397.39671416655716,251.25021500922935L399.65484624923323,250.7264980112124L401.91297833190924,250.1797642609048L404.1711104145853,249.6100996417106L406.4292424972613,249.0166453195891L408.6873745799374,248.39742597624667L410.9455066626134,247.75321456231998L413.2036387452895,247.0822934097276L415.4617708279655,246.38303073379225L417.71990291064157,245.6554265345139L419.9780349933176,244.90111259656987L422.23616707599365,244.11785595145437L424.49429915866966,243.306429549804L426.75243124134573,242.4673486920432L429.01056332402175,241.60001219434346L431.2686954066978,240.70184355458272L433.52682748937383,239.7723274723365L435.7849595720499,238.8098321629276L438.0430916547259,237.81409997614367L440.301223737402,236.78298382688308L442.559355820078,235.71785784961085L444.81748790275407,234.61537259156833L447.0756199854301,233.47647277020027L449.33375206810615,232.3002136680619L451.59188415078216,231.0846199668596L453.85001623345823,229.82866106574454L456.10814831613436,228.53044752982723L458.3662803988104,227.19100995995646L460.62441248148644,225.80931775528336L462.88254456416246,224.38408266474698L465.14067664683853,222.91367290366995L467.39880872951454,221.39619903716272L469.6569408121906,219.8302869307602L471.9150728948666,218.21258713170363L474.1732049775427,216.5429278731849L476.4313370602187,214.81821735265754" style="fill: none;" fill="none"></path></g><g><path stroke="rgb(255, 112, 67)" stroke-width="2px" d="M36.09558093839002,-1.8447414479640543L38.35371302106608,27.44003932192868L40.61184510374212,51.21608678798384L42.86997718641816,71.14876603851661L45.1281092690942,88.23629987902893L47.38624135177025,103.11310901538349L49.644373434446294,116.213849355577L51.902505517122336,127.85405652616151L54.160637599798385,138.2748052423606L56.41876968247443,147.66632724418855L58.67690176515047,156.18166675769763L60.93503384782652,163.94535471878885L63.19316593050256,171.06105239617432L65.45129801317862,177.6138702432871L67.70943009585466,183.6756067859294L69.9675621785307,189.30646629035408L72.22569426120674,194.55694819815417L74.48382634388278,199.47042362838482L76.74195842655882,204.08339302777563L79.00009050923488,208.42728972221613L81.25822259191092,212.5294246342005L83.51635467458696,216.41264274921122L85.774486757263,220.09781373443724L88.03261883993905,223.6028013379251L90.29075092261509,226.94280692219505L92.54888300529113,230.13208713232274L94.80701508796719,233.18249387806975L97.06514717064323,236.10484846834885L99.32327925331927,238.90885572781994L101.58141133599531,241.60318988029402L103.83954341867135,244.19558043213743L106.0976755013474,246.69289805567567L108.35580758402344,249.10149812280994L110.6139396666995,251.427306588421L112.87207174937554,253.675304689945L115.13020383205158,255.85004424779748L117.38833591472762,257.95607708239424L119.64646799740366,259.9974397137266L121.90460008007972,261.9774815945531L124.16273216275577,263.8997239444408L126.42086424543182,265.76717268253196L128.67899632810784,267.58249019435283L130.93712841078388,269.3485106322378L133.19526049345993,271.0673810812884L135.45339257613597,272.7415062768187L137.711524658812,274.37303330393047L139.96965674148805,275.9636798307051L142.2277888241641,277.51533529203203L144.48592090684014,279.02954558918464L146.7440529895162,280.5081142736483L149.00218507219225,281.9521578296759L151.2603171548683,283.3633080419449L153.51844923754433,284.7426813947081L155.77658132022037,286.09156613902655L158.03471340289641,287.41047757532465L160.29284548557246,288.70121925508795L162.5509775682485,289.96439236214485L164.80910965092454,291.200769847132L167.06724173360058,292.4114681943023L169.32537381627662,293.5972603542924L171.58350589895267,294.75909104454706L173.8416379816287,295.89721791527853L176.09977006430478,297.0126715673356L178.35790214698082,298.10596730114264L180.61603422965686,299.17753453372006L182.8741663123329,300.2282320991086L185.13229839500895,301.2582317641163L187.390430477685,302.2682205959758L189.64856256036103,303.25871389511144L191.90669464303707,304.2298834283314L194.1648267257131,305.18275979648456L196.42295880838915,306.11691358255047L198.6810908910652,307.03346127078214L200.93922297374124,307.9321452109673L203.19735505641728,308.8139960039548L205.45548713909335,309.67858423272435L207.7136192217694,310.5271122649328L209.97175130444543,311.35915068355985L212.22988338712148,312.17521478903L214.48801546979752,312.97539046474725L216.74614755247356,313.76010712773194L219.0042796351496,314.52927889458L221.26241171782564,315.2831634155037L223.52054380050168,316.02210422411923L225.77867588317773,316.746444854043L228.03680796585377,317.4562711886789L230.2949400485298,318.1517549948352L232.55307213120585,318.83281038910775L234.81120421388192,319.499866788517L237.06933629655796,320.15292419306286L239.327468379234,320.7922402529576L241.58560046191005,321.41807261841336L243.84373254458612,322.0300777558139L246.10186462726216,322.62877096558367L248.3599967099382,323.21415224772267L250.61812879261424,323.78656513584707L252.87626087529028,324.3456660963407L255.13439295796633,324.89136924579947L257.3925250406424,325.4239322344356L259.6506571233184,325.94361271246123L261.9087892059944,326.45015302966425L264.1669212886705,326.94363906944864L266.4250533713465,327.4244143654307L268.6831854540226,327.89265068441864L270.9413175366986,328.34817625960426L273.19944961937466,328.79073344077534L275.4575817020507,329.22015046112375L277.71571378472674,329.6372861546902L279.9738458674028,330.04162522105025L282.2319779500789,330.43325354360803L284.4901100327549,330.8123428891716L286.74824211543097,331.17846384072067L289.006374198107,331.53221758208366L291.26450628078305,331.87334646304845L293.5226383634591,332.2009916495743L295.78077044613514,332.5156684420856L298.0389025288112,332.81703330696615L300.2970346114872,333.1060309616606L302.5551666941633,333.3818025721284L304.81329877683936,333.64434813836937L307.0714308595154,333.894097077404L309.32956294219144,334.13053408880785L311.58769502486746,334.35357328917684L313.8458271075435,334.5630429117028L316.10395919021954,334.75894295638574L318.3620912728956,334.94050047258906L320.6202233555716,335.1085742943534L322.8783554382477,335.26290677146665L325.1364875209237,335.40366967073686L327.3946196035998,335.5303476917396L329.6527516862758,335.6425114174546L331.91088376895186,335.7404184980941L334.1690158516279,335.8236395166376L336.42714793430395,335.8924321232974L338.68528001698,335.94619513424504L340.9434120996561,335.98501443288455L343.2015441823321,336.00880413581183L345.45967626500817,336.0173924762188L347.7178083476842,336.0106076872973L349.97594043036025,335.9881921188351L352.23407251303627,335.9494587035997L354.49220459571234,335.89483685861137L356.75033667838835,335.82415481706204L359.0084687610644,335.736639628315L361.26660084374043,335.63186187535L363.5247329264165,335.509821558167L365.7828650090925,335.3704327933619L368.0409970917686,335.2130943971062L370.2991291744446,335.0375487191878L372.5572612571207,334.8440534098188L374.8153933397967,334.63166375155447L377.07352542247276,334.4003797443948L379.33165750514877,334.150373155148L381.58978958782484,333.88044161615693L383.84792167050085,333.5911004278462L386.1060537531769,333.2808895723465L388.36418583585294,332.9500666998701L390.622317918529,332.59777297637623L392.880450001205,332.22426605207716L395.1385820838811,331.82877297633627L397.39671416655716,331.4104349151129L399.65484624923323,330.96993893563945L401.91297833190924,330.50616855366314L404.1711104145853,330.01843670195143L406.4292424972613,329.50682926390834L408.6873745799374,328.97048740549315L410.9455066626134,328.40880994287744L413.2036387452895,327.82119569223266L415.4617708279655,327.20644228590186L417.71990291064157,326.56480737409726L419.9780349933176,325.8959474232026L422.23616707599365,325.19857418215673L424.49429915866966,324.4720005837272L426.75243124134573,323.71639839472215L429.01056332402175,322.9300499470601L431.2686954066978,322.1123540569127L433.52682748937383,321.26167893960246L435.7849595720499,320.3777669449173L438.0430916547259,319.4605321894531L440.301223737402,318.5086005387447L442.559355820078,317.5209413919433L444.81748790275407,316.4973829822409L447.0756199854301,315.4361217581518L449.33375206810615,314.3366424192517L451.59188415078216,313.1985155485203L453.85001623345823,312.01985171106793L456.10814831613436,310.80030737327843L458.3662803988104,309.5375636832419L460.62441248148644,308.22887237202804L462.88254456416246,306.87328872219217L465.14067664683853,305.47132803415866L467.39880872951454,304.02127263984613L469.6569408121906,302.521147220961L471.9150728948666,300.969491759634L474.1732049775427,299.3652756550164L476.4313370602187,297.70712477264306" style="fill: none;" fill="none"></path></g></g></g></g></g></g><g transform="translate(50, 378)" clip-path="url(#clip_1)"><clipPath id="clip_1"><rect width="517" height="22"></rect></clipPath><g><g><line x1="27.063052607685847" y1="0" x2="27.063052607685847" y2="5" style="visibility: inherit;" fill="rgb(0, 0, 0)" stroke="rgb(204, 204, 204)" stroke-width="1px"></line><line x1="72.22569426120674" y1="0" x2="72.22569426120674" y2="5" style="visibility: inherit;" fill="rgb(0, 0, 0)" stroke="rgb(204, 204, 204)" stroke-width="1px"></line><line x1="117.38833591472762" y1="0" x2="117.38833591472762" y2="5" style="visibility: inherit;" fill="rgb(0, 0, 0)" stroke="rgb(204, 204, 204)" stroke-width="1px"></line><line x1="162.5509775682485" y1="0" x2="162.5509775682485" y2="5" style="visibility: inherit;" fill="rgb(0, 0, 0)" stroke="rgb(204, 204, 204)" stroke-width="1px"></line><line x1="207.7136192217694" y1="0" x2="207.7136192217694" y2="5" style="visibility: inherit;" fill="rgb(0, 0, 0)" stroke="rgb(204, 204, 204)" stroke-width="1px"></line><line x1="252.87626087529028" y1="0" x2="252.87626087529028" y2="5" style="visibility: inherit;" fill="rgb(0, 0, 0)" stroke="rgb(204, 204, 204)" stroke-width="1px"></line><line x1="298.0389025288112" y1="0" x2="298.0389025288112" y2="5" style="visibility: inherit;" fill="rgb(0, 0, 0)" stroke="rgb(204, 204, 204)" stroke-width="1px"></line><line x1="343.2015441823321" y1="0" x2="343.2015441823321" y2="5" style="visibility: inherit;" fill="rgb(0, 0, 0)" stroke="rgb(204, 204, 204)" stroke-width="1px"></line><line x1="388.36418583585294" y1="0" x2="388.36418583585294" y2="5" style="visibility: inherit;" fill="rgb(0, 0, 0)" stroke="rgb(204, 204, 204)" stroke-width="1px"></line><line x1="433.52682748937383" y1="0" x2="433.52682748937383" y2="5" style="visibility: inherit;" fill="rgb(0, 0, 0)" stroke="rgb(204, 204, 204)" stroke-width="1px"></line><line x1="478.6894691428948" y1="0" x2="478.6894691428948" y2="5" style="visibility: inherit;" fill="rgb(0, 0, 0)" stroke="rgb(204, 204, 204)" stroke-width="1px"></line></g><g transform="translate(0, 8)"><text x="27.063052607685847" y="0" dx="0em" dy="0.95em" style="text-anchor: middle; visibility: inherit; font-family: &quot;Helvetica Neue&quot;, sans-serif; font-size: 12px; font-weight: 200;" fill="rgb(50, 49, 63)" stroke="none" stroke-width="1px">0</text><text x="72.22569426120674" y="0" dx="0em" dy="0.95em" style="text-anchor: middle; visibility: inherit; font-family: &quot;Helvetica Neue&quot;, sans-serif; font-size: 12px; font-weight: 200;" fill="rgb(50, 49, 63)" stroke="none" stroke-width="1px">20</text><text x="117.38833591472762" y="0" dx="0em" dy="0.95em" style="text-anchor: middle; visibility: inherit; font-family: &quot;Helvetica Neue&quot;, sans-serif; font-size: 12px; font-weight: 200;" fill="rgb(50, 49, 63)" stroke="none" stroke-width="1px">40</text><text x="162.5509775682485" y="0" dx="0em" dy="0.95em" style="text-anchor: middle; visibility: inherit; font-family: &quot;Helvetica Neue&quot;, sans-serif; font-size: 12px; font-weight: 200;" fill="rgb(50, 49, 63)" stroke="none" stroke-width="1px">60</text><text x="207.7136192217694" y="0" dx="0em" dy="0.95em" style="text-anchor: middle; visibility: inherit; font-family: &quot;Helvetica Neue&quot;, sans-serif; font-size: 12px; font-weight: 200;" fill="rgb(50, 49, 63)" stroke="none" stroke-width="1px">80</text><text x="252.87626087529028" y="0" dx="0em" dy="0.95em" style="text-anchor: middle; visibility: inherit; font-family: &quot;Helvetica Neue&quot;, sans-serif; font-size: 12px; font-weight: 200;" fill="rgb(50, 49, 63)" stroke="none" stroke-width="1px">100</text><text x="298.0389025288112" y="0" dx="0em" dy="0.95em" style="text-anchor: middle; visibility: inherit; font-family: &quot;Helvetica Neue&quot;, sans-serif; font-size: 12px; font-weight: 200;" fill="rgb(50, 49, 63)" stroke="none" stroke-width="1px">120</text><text x="343.2015441823321" y="0" dx="0em" dy="0.95em" style="text-anchor: middle; visibility: inherit; font-family: &quot;Helvetica Neue&quot;, sans-serif; font-size: 12px; font-weight: 200;" fill="rgb(50, 49, 63)" stroke="none" stroke-width="1px">140</text><text x="388.36418583585294" y="0" dx="0em" dy="0.95em" style="text-anchor: middle; visibility: inherit; font-family: &quot;Helvetica Neue&quot;, sans-serif; font-size: 12px; font-weight: 200;" fill="rgb(50, 49, 63)" stroke="none" stroke-width="1px">160</text><text x="433.52682748937383" y="0" dx="0em" dy="0.95em" style="text-anchor: middle; visibility: inherit; font-family: &quot;Helvetica Neue&quot;, sans-serif; font-size: 12px; font-weight: 200;" fill="rgb(50, 49, 63)" stroke="none" stroke-width="1px">180</text><text x="478.6894691428948" y="0" dx="0em" dy="0.95em" style="text-anchor: middle; visibility: inherit; font-family: &quot;Helvetica Neue&quot;, sans-serif; font-size: 12px; font-weight: 200;" fill="rgb(50, 49, 63)" stroke="none" stroke-width="1px">200</text></g><line x1="0" y1="0" x2="517" y2="0" fill="rgb(0, 0, 0)" stroke="rgb(204, 204, 204)" stroke-width="1px"></line></g></g></g></g></svg>